<svg width="251" height="38" viewBox="0 0 251 38" fill="none" xmlns="http://www.w3.org/2000/svg">
<path d="M26.0056 23.8361V36.1824H22.8495V23.8361C22.8495 21.1928 20.934 19.1513 18.715 19.1513C16.4964 19.1513 14.5809 21.1928 14.5809 23.8361V36.1824H11.4248V23.8361C11.4248 21.1928 9.50927 19.1513 7.29023 19.1513C5.07161 19.1513 3.1561 21.1928 3.1561 23.8361V36.1824H0V23.8361C0 21.7569 0.739339 19.7828 2.09306 18.2913C3.4641 16.7809 5.31744 15.9316 7.29023 15.9316C9.26302 15.9316 11.1166 16.7809 12.4874 18.2913C12.67 18.4925 12.8458 18.7102 13.0025 18.922C13.2013 18.6538 13.3281 18.5005 13.5176 18.2913C14.8887 16.7809 16.742 15.9316 18.7148 15.9316C20.6876 15.9316 22.5326 16.7713 23.9036 18.2822C25.26 19.7763 26.0056 21.7569 26.0056 23.8361Z" fill="#999999"/>
<path d="M32.3861 36.1826V23.8428C32.3861 21.7618 33.1263 19.7857 34.481 18.2926C35.8535 16.7807 37.7089 15.9307 39.6833 15.9307H40.4723V19.1524H39.6833C37.4616 19.1524 35.5438 21.1965 35.5438 23.8428V36.1826H32.3861Z" fill="#999999"/>
<path d="M66.4534 0.267578C66.4534 7.45059 66.4534 14.6336 66.4534 21.8166C66.4534 23.2529 67.6334 24.4327 69.0701 24.4327C70.5068 24.4327 71.6868 23.2527 71.6868 21.8166C71.6868 20.3799 70.5068 19.1999 69.0701 19.1999H68.2409V6.57855H69.0701C77.4841 6.57855 84.3082 13.402 84.3082 21.8166C84.3082 30.2306 77.4841 37.0541 69.0701 37.0541C60.6561 37.0541 53.832 30.2306 53.832 21.8166C53.832 14.6336 53.832 7.45059 53.832 0.267578H66.4534Z" fill="#999999"/>
<path d="M117.499 21.3548V36.1821H105.186C105.186 31.2055 105.186 26.2802 105.186 21.3548C105.186 19.9693 104.058 18.7892 102.672 18.7892C101.235 18.7892 100.107 19.9693 100.107 21.3548C100.107 22.7399 101.235 23.9197 102.672 23.9197H103.399V36.1821H102.672C94.4635 36.1821 87.8451 29.5122 87.8451 21.3548C87.8451 13.1458 94.4635 6.52686 102.672 6.52686C110.83 6.52706 117.499 13.1458 117.499 21.3548Z" fill="#999999"/>
<path d="M133.964 35.977V36.1821H121.343V21.5086C121.343 1.80702 150.998 1.80702 150.998 21.5086V36.1821H138.376V35.977V22.0729C138.376 18.4814 133.964 18.4814 133.964 22.0729V35.977Z" fill="#999999"/>
<path d="M184.19 21.3548V36.1821H171.876C171.876 31.2055 171.876 26.2802 171.876 21.3548C171.876 19.9693 170.748 18.7892 169.363 18.7892C167.926 18.7892 166.797 19.9693 166.797 21.3548C166.797 22.7399 167.926 23.9197 169.363 23.9197H170.089V36.1821H169.363C161.154 36.1821 154.536 29.5122 154.536 21.3548C154.536 13.1458 161.154 6.52686 169.363 6.52686C177.521 6.52706 184.19 13.1458 184.19 21.3548Z" fill="#999999"/>
<path d="M200.655 35.977V36.1821H188.033V21.5086C188.033 1.80702 217.689 1.80702 217.689 21.5086V36.1821H205.067V35.977V22.0729C205.067 18.4814 200.655 18.4814 200.655 22.0729V35.977Z" fill="#999999"/>
<path d="M250.881 21.3548V36.1821H238.567C238.567 31.2055 238.567 26.2802 238.567 21.3548C238.567 19.9693 237.439 18.7892 236.054 18.7892C234.616 18.7892 233.488 19.9693 233.488 21.3548C233.488 22.7399 234.616 23.9197 236.054 23.9197H236.78V36.1821H236.054C227.845 36.1821 221.226 29.5122 221.226 21.3548C221.226 13.1458 227.845 6.52686 236.054 6.52686C244.212 6.52706 250.881 13.1458 250.881 21.3548Z" fill="#999999"/>
</svg>
