<svg width="170" height="34" viewBox="0 0 170 34" fill="none" xmlns="http://www.w3.org/2000/svg">
<g clip-path="url(#clip0_50_314)">
<g clip-path="url(#clip1_50_314)">
<g clip-path="url(#clip2_50_314)">
<path d="M10.3117 27.5544L20.1097 21.2997L29.9076 27.5544L20.1097 33.8071L10.3117 27.5544ZM97.7103 33.3911L97.7633 10.7719H101.412L101.828 13.9512C102.258 12.8497 103.022 11.9104 104.013 11.2649C105.004 10.6195 106.172 10.3002 107.353 10.352C111.626 10.352 114.442 13.4273 114.442 19.1062V19.5751C114.442 25.0999 111.314 28.0193 107.353 28.0193C106.247 28.1013 105.143 27.8464 104.184 27.2881C103.226 26.7299 102.46 25.8945 101.985 24.8919V33.3901L97.7103 33.3911ZM101.932 19.1102V19.4231C101.932 22.3935 103.495 24.2701 105.946 24.2701C108.445 24.2171 110.011 22.6024 110.011 19.4761V19.1102C110.011 15.7749 108.291 14.1112 105.998 14.1112C103.544 14.1102 101.932 15.9868 101.932 19.1132V19.1102ZM135.391 19.5271V19.0582C135.391 13.4303 138.991 10.36 143.89 10.36C148.889 10.36 152.388 13.4353 152.388 19.0582V19.5271C152.388 25.0519 148.949 28.0253 143.89 28.0253C138.466 27.9733 135.391 25.0549 135.391 19.5311V19.5271ZM139.821 19.0582V19.4761C139.821 22.4984 141.384 24.2171 143.888 24.2171C146.387 24.1661 147.953 22.4984 147.953 19.4761V19.0582C147.953 15.9318 146.39 14.0592 143.888 14.0592C141.436 14.0572 139.82 15.7779 139.82 19.0612L139.821 19.0582ZM120.903 24.479L120.541 27.5544H116.788V5.14409H121.061V13.7423C121.503 12.675 122.269 11.7737 123.251 11.1658C124.233 10.5579 125.381 10.2742 126.533 10.355C130.546 10.407 133.517 13.1684 133.517 18.7452V19.2671C133.517 24.8439 130.702 28.0233 126.428 28.0233C125.251 28.0927 124.083 27.7873 123.09 27.1511C122.097 26.5149 121.332 25.5804 120.903 24.482V24.479ZM120.955 18.9022V19.2671C120.955 22.3935 122.571 24.2171 124.969 24.2171C127.523 24.2171 129.034 22.6024 129.034 19.2671V18.8502C129.034 15.7749 127.366 14.0512 125.022 14.0512C122.622 14.0572 120.954 15.9868 120.954 18.9062L120.955 18.9022ZM78.4814 19.5271V19.0582C78.4814 13.4303 82.0806 10.36 86.9796 10.36C91.9785 10.36 95.4778 13.4353 95.4778 19.0582V19.5271C95.4778 25.0519 92.0895 28.0253 86.9796 28.0253C81.5547 27.9733 78.4804 25.0549 78.4804 19.5311L78.4814 19.5271ZM82.8584 19.0582V19.4761C82.8584 22.4984 84.4221 24.2171 86.9246 24.2171C89.4241 24.1661 90.9897 22.4984 90.9897 19.4761V19.0582C90.9897 15.9318 89.4261 14.0592 86.9246 14.0592C84.4731 14.0572 82.8574 15.7779 82.8574 19.0612L82.8584 19.0582ZM66.9108 27.6054V10.7719H70.4021L70.975 14.6811C71.6528 12.0236 73.3744 10.6159 76.4998 10.6159H77.5936V15.098H75.7699C72.1707 15.098 71.2879 16.3477 71.2879 19.897V27.6104L66.9108 27.6054ZM164.473 27.5534L160.616 21.9765L156.865 27.5534H151.705L158.116 18.8492L152.227 10.7709H157.282L160.67 15.8268L164.109 10.7709H169.108L163.116 18.7972L169.421 27.5534H164.473ZM47.3669 27.5534V6.81074H55.2892C60.3452 6.81074 64.5143 9.72813 64.5143 16.4007V17.8064C64.5143 24.53 60.6051 27.5534 55.4452 27.5534H47.3669ZM51.798 23.7492H55.1853C58.0517 23.7492 59.9843 21.8726 59.9843 17.7034V16.6037C59.9843 12.4346 57.9517 10.558 55.0333 10.558H51.802L51.798 23.7492ZM20.1626 19.2671L29.9606 13.0134L20.1626 6.81474L29.9086 0.560059L39.7065 6.81474L29.9086 13.0694L39.7065 19.3231L29.9086 25.5758L20.1626 19.2671ZM0.566772 19.2671L10.3647 13.0134L0.566772 6.81474L10.3647 0.560059L20.1626 6.81474L10.3647 13.0694L20.1626 19.3231L10.3647 25.5758L0.566772 19.2671Z" fill="#999999"/>
</g>
</g>
</g>
<defs>
<clipPath id="clip0_50_314">
<rect width="168.89" height="33.25" fill="white" transform="translate(0.550049 0.560059)"/>
</clipPath>
<clipPath id="clip1_50_314">
<rect width="168.89" height="33.25" fill="white" transform="translate(0.550049 0.560059)"/>
</clipPath>
<clipPath id="clip2_50_314">
<rect width="168.858" height="33.25" fill="white" transform="translate(0.565796 0.560059)"/>
</clipPath>
</defs>
</svg>
