<svg width="40" height="41" viewBox="0 0 40 41" fill="none" xmlns="http://www.w3.org/2000/svg">
<g clip-path="url(#clip0_50_1275)">
<path d="M34.608 36.0182H5.392C2.41461 36.0094 0.00439142 33.5956 0 30.6182V10.8902C0.00439142 7.91284 2.41461 5.49904 5.392 5.49023H34.608C37.5854 5.49904 39.9956 7.91284 40 10.8902V30.6182C39.9956 33.5956 37.5854 36.0094 34.608 36.0182ZM5.392 8.13823C3.87394 8.14263 2.64439 9.37217 2.64 10.8902V30.6182C2.64439 32.1363 3.87394 33.3658 5.392 33.3702H34.608C36.1261 33.3658 37.3556 32.1363 37.36 30.6182V10.8902C37.3556 9.37217 36.1261 8.14263 34.608 8.13823H5.392ZM20.8 24.2262L31.456 16.1222C31.8318 15.8364 32.0267 15.3718 31.9671 14.9034C31.9075 14.435 31.6025 14.034 31.1671 13.8514C30.7316 13.6688 30.2318 13.7324 29.856 14.0182L20 21.5542L10.16 14.0822C9.579 13.6404 8.74983 13.7532 8.308 14.3342C7.86617 14.9152 7.979 15.7444 8.56 16.1862L19.2 24.2262C19.6707 24.5919 20.3293 24.5919 20.8 24.2262Z" fill="#FCD800"/>
</g>
<defs>
<clipPath id="clip0_50_1275">
<rect width="40" height="40" fill="white" transform="translate(0 0.69043)"/>
</clipPath>
</defs>
</svg>
