<svg width="38" height="39" viewBox="0 0 38 39" fill="none" xmlns="http://www.w3.org/2000/svg">
<rect x="0.5" y="1.45996" width="36.5" height="36.5" rx="18.25" stroke="#DADEE4" stroke-opacity="0.5"/>
<path d="M18.75 22.1849C20.1169 22.1849 21.225 21.0768 21.225 19.7099C21.225 18.343 20.1169 17.2349 18.75 17.2349C17.3831 17.2349 16.275 18.343 16.275 19.7099C16.275 21.0768 17.3831 22.1849 18.75 22.1849Z" fill="#5A5A5A"/>
<path d="M21.9 12.21H15.6C13.2 12.21 11.25 14.16 11.25 16.56V22.785C11.25 25.26 13.2 27.21 15.6 27.21H21.825C24.225 27.21 26.175 25.26 26.175 22.86V16.56C26.25 14.16 24.3 12.21 21.9 12.21ZM18.75 23.46C16.65 23.46 15 21.81 15 19.71C15 17.61 16.65 15.96 18.75 15.96C20.85 15.96 22.5 17.61 22.5 19.71C22.5 21.81 20.85 23.46 18.75 23.46ZM23.1 15.96C22.8 15.96 22.5 15.66 22.5 15.36C22.5 15.06 22.8 14.76 23.1 14.76C23.4 14.76 23.7 15.06 23.7 15.36C23.7 15.66 23.475 15.96 23.1 15.96Z" fill="#5A5A5A"/>
</svg>
