<svg width="124" height="41" viewBox="0 0 124 41" fill="none" xmlns="http://www.w3.org/2000/svg">
<g clip-path="url(#clip0_50_323)">
<g clip-path="url(#clip1_50_323)">
<g clip-path="url(#clip2_50_323)">
<path d="M84.1402 40.2073C82.5428 39.9314 81.0409 39.2569 79.7734 38.2464C78.506 37.2358 77.5139 35.9218 76.8891 34.4261C78.132 33.8261 79.4378 33.3492 80.7216 32.7893C81.0601 33.6548 81.6052 34.4244 82.3092 35.0311C83.0133 35.6377 83.8551 36.063 84.7611 36.2698C85.6942 36.4799 86.6664 36.437 87.5773 36.1455C88.4882 35.8541 89.3047 35.3247 89.9425 34.612C91.2273 33.0382 91.2273 30.8825 91.1643 28.9567C90.2495 29.9437 89.0812 30.6603 87.7868 31.0285C86.3392 31.3757 84.8286 31.3627 83.3872 30.9907C81.9458 30.6187 80.6176 29.8991 79.5188 28.8947C78.3965 27.9069 77.5063 26.6832 76.9119 25.3113C76.3175 23.9394 76.0335 22.4531 76.0802 20.9587C76.1332 19.2685 76.6037 17.6176 77.4496 16.1533C78.2956 14.6891 79.4908 13.4569 80.9286 12.5668C82.1209 11.7886 83.4903 11.3236 84.9099 11.2149C86.3296 11.1062 87.7537 11.3572 89.0506 11.9448C89.8387 12.3384 90.5536 12.8639 91.1643 13.4986C91.1853 12.9397 91.1643 12.3578 91.1853 11.7789C92.5742 11.7999 93.962 11.7789 95.3718 11.7999V30.0746C95.4928 32.8912 94.5201 35.6456 92.6572 37.7616C91.7591 38.6162 90.7004 39.2842 89.5424 39.7268C88.3844 40.1695 87.1501 40.378 85.911 40.3403C85.3182 40.3405 84.7263 40.2961 84.1402 40.2073ZM85.2181 15.2174C83.9442 15.4408 82.7911 16.1095 81.9645 17.1042C81.017 18.2826 80.5022 19.7503 80.506 21.2624C80.5098 22.7745 81.032 24.2396 81.9855 25.4132C82.5503 26.0843 83.2695 26.6083 84.0814 26.9403C84.8934 27.2722 85.7737 27.4022 86.6469 27.3189C87.4667 27.2213 88.252 26.9322 88.9395 26.475C89.6269 26.0179 90.1973 25.4055 90.6044 24.6873C91.2857 23.4616 91.5828 22.0594 91.4571 20.6628C91.3314 19.2661 90.7887 17.9395 89.8995 16.8552C89.4206 16.3162 88.833 15.8848 88.1754 15.5892C87.5177 15.2936 86.805 15.1407 86.084 15.1404C85.7936 15.1407 85.5038 15.1658 85.2181 15.2174ZM41.6845 31.2974C40.208 31.2179 38.7671 30.8147 37.4638 30.1165C36.1605 29.4183 35.0266 28.442 34.1424 27.2569C33.1799 25.9121 32.5535 24.3563 32.3155 22.7197C32.0776 21.0831 32.235 19.4134 32.7746 17.8501C33.3433 16.1936 34.3441 14.7191 35.6735 13.579C37.003 12.4388 38.6128 11.6745 40.3366 11.3649C41.7091 11.0996 43.121 11.1133 44.4881 11.4054C45.8551 11.6974 47.1494 12.2617 48.2937 13.0647C50.3614 14.5453 51.7672 16.7766 52.2102 19.2809C52.4947 20.7289 52.4623 22.2213 52.1154 23.6556C51.7685 25.0898 51.1152 26.432 50.2004 27.5899C49.2485 28.7597 48.047 29.7018 46.6839 30.3471C45.3208 30.9924 43.8306 31.3246 42.3224 31.3194C42.1091 31.3174 41.8971 31.3101 41.6865 31.2974H41.6845ZM40.9596 15.2994C39.8228 15.5936 38.808 16.2392 38.0599 17.1442C37.0836 18.375 36.5803 19.9148 36.6412 21.4846C36.7021 23.0545 37.3231 24.5506 38.3919 25.7021C39.0268 26.3404 39.8081 26.8137 40.6678 27.0809C41.5275 27.348 42.4395 27.4009 43.3243 27.2349C44.1369 27.077 44.9042 26.7404 45.5706 26.2495C46.2371 25.7585 46.7861 25.1255 47.1778 24.3963C47.8601 23.1516 48.1199 21.7191 47.9181 20.3141C47.7163 18.9091 47.0639 17.6076 46.0589 16.6053C45.0244 15.662 43.6754 15.1383 42.2754 15.1364C41.8316 15.1361 41.3895 15.1915 40.9596 15.3014V15.2994ZM8.59459 29.4097C5.188 27.5879 2.55873 24.5913 1.1955 20.9767C-0.0389874 17.6463 -0.0743437 13.9897 1.09552 10.636C2.17612 7.59119 4.16552 4.95156 6.79481 3.07394C9.32958 1.24842 12.3363 0.191114 15.4557 0.0283203H16.5556C20.404 0.101203 24.0769 1.65178 26.8133 4.35878C25.8184 5.37466 24.8036 6.34854 23.8287 7.36341C22.3437 5.9598 20.5015 4.99131 18.5034 4.56376C17.038 4.24801 15.5244 4.2283 14.0513 4.50577C12.5782 4.78325 11.1755 5.35232 9.92542 6.17956C8.58576 7.07268 7.4539 8.24353 6.60665 9.61266C5.7594 10.9818 5.21658 12.5172 5.01503 14.1146C4.79488 15.6925 4.90405 17.299 5.33565 18.8326C5.76725 20.3663 6.51192 21.7939 7.52272 23.0255C8.51619 24.217 9.74869 25.1868 11.1405 25.8722C12.5323 26.5575 14.0525 26.9431 15.6027 27.004C17.0597 27.1147 18.5239 26.9276 19.9062 26.454C21.2885 25.9804 22.5598 25.2303 23.6427 24.2493C25.2122 22.7404 26.1648 20.702 26.3154 18.53C22.8768 18.53 19.4362 18.551 15.9977 18.53V14.2606H30.4809C31.2268 18.841 30.1489 23.9983 26.6683 27.2729C24.287 29.5826 21.1706 30.9831 17.8624 31.2305C17.3225 31.2834 16.7796 31.3104 16.2366 31.3104C13.5696 31.3243 10.9413 30.6716 8.59059 29.4117L8.59459 29.4097ZM63.8557 31.2944C62.3427 31.2509 60.8593 30.8648 59.5171 30.1651C58.1748 29.4654 57.0088 28.4704 56.1067 27.2549C55.1286 25.877 54.499 24.2825 54.2715 22.6081C54.0441 20.9337 54.2257 19.2291 54.8009 17.6401C55.3952 16.0308 56.3999 14.6049 57.7153 13.5036C59.0308 12.4023 60.6112 11.664 62.2999 11.3619C63.8713 11.054 65.4927 11.1166 67.0357 11.5446C68.5786 11.9726 70.0006 12.7543 71.1888 13.8276C73.0278 15.5922 74.1457 17.977 74.3255 20.5194C74.5053 23.0617 73.7341 25.5801 72.1617 27.5859C71.2121 28.751 70.0144 29.6894 68.656 30.3327C67.2976 30.976 65.8127 31.308 64.3097 31.3044C64.1587 31.3074 64.0067 31.3034 63.8547 31.2964L63.8557 31.2944ZM62.9228 15.2964C61.7914 15.5909 60.7787 16.2279 60.0232 17.1202C59.0564 18.3332 58.549 19.8487 58.5907 21.3993C58.6324 22.9499 59.2205 24.4359 60.2512 25.5951C60.8893 26.2695 61.6866 26.7729 62.5699 27.059C63.4532 27.3452 64.3942 27.405 65.3065 27.2329C66.1168 27.0684 66.8814 26.7293 67.5471 26.239C68.2128 25.7487 68.7636 25.1192 69.1611 24.3943C69.8374 23.1415 70.0898 21.7034 69.8805 20.2951C69.6712 18.8869 69.0116 17.5843 68.0002 16.5823C66.9731 15.6486 65.6348 15.1313 64.2467 15.1314C63.7997 15.1316 63.3545 15.1883 62.9218 15.3004L62.9228 15.2964ZM107.534 27.8539C105.874 25.8086 105.033 23.2194 105.175 20.589C105.317 17.9586 106.431 15.4747 108.301 13.6196C109.563 12.4663 111.116 11.6809 112.793 11.3486C114.469 11.0163 116.205 11.1499 117.811 11.7349C120.837 12.8737 122.763 15.7544 123.737 18.717C119.238 20.5818 114.765 22.4255 110.27 24.2913C110.846 25.5201 111.869 26.4833 113.13 26.985C114.035 27.3192 115.009 27.4222 115.965 27.2846C116.92 27.147 117.826 26.7732 118.6 26.1971C119.178 25.7189 119.693 25.1688 120.133 24.5603C121.272 25.3272 122.412 26.0731 123.551 26.84C122.739 28.0596 121.668 29.0854 120.415 29.8446C119.162 30.6037 117.756 31.0776 116.299 31.2325C115.905 31.2806 115.508 31.3047 115.11 31.3044C113.673 31.3146 112.25 31.0115 110.942 30.4163C109.633 29.8211 108.47 28.9481 107.533 27.8579L107.534 27.8539ZM110.518 17.4552C109.838 18.4854 109.497 19.7023 109.543 20.9357C112.548 19.6932 115.553 18.4434 118.557 17.1862C118.281 16.6271 117.868 16.1464 117.358 15.7881C116.847 15.4298 116.255 15.2054 115.635 15.1354C115.381 15.0901 115.124 15.0673 114.865 15.0675C114.003 15.0915 113.159 15.3208 112.402 15.7362C111.646 16.1516 111 16.7412 110.517 17.4562L110.518 17.4552ZM98.5404 30.6745C98.5614 20.8327 98.5404 10.969 98.5404 1.10719H102.976V30.6945C102.231 30.6945 101.476 30.7005 100.73 30.7005C99.9982 30.7015 99.2673 30.6955 98.5404 30.6745Z" fill="#999999"/>
</g>
</g>
</g>
<defs>
<clipPath id="clip0_50_323">
<rect width="123.52" height="40.31" fill="white" transform="translate(0.22998 0.0302734)"/>
</clipPath>
<clipPath id="clip1_50_323">
<rect width="123.52" height="40.31" fill="white" transform="translate(0.22998 0.0302734)"/>
</clipPath>
<clipPath id="clip2_50_323">
<rect width="123.493" height="40.31" fill="white" transform="translate(0.243652 0.0302734)"/>
</clipPath>
</defs>
</svg>
