<svg width="41" height="41" viewBox="0 0 41 41" fill="none" xmlns="http://www.w3.org/2000/svg">
<g clip-path="url(#clip0_50_1281)">
<g clip-path="url(#clip1_50_1281)">
<path d="M32.0489 0.69043C34.7729 0.69043 36.9812 2.8987 36.9812 5.62274V35.7581C36.9812 38.4822 34.7729 40.6904 32.0489 40.6904H9.60223C6.87819 40.6904 4.66992 38.4822 4.66992 35.7581V5.62274C4.66992 2.8987 6.87819 0.69043 9.60223 0.69043H32.0489ZM32.0489 3.35366H9.60223C8.34906 3.35366 7.33316 4.36956 7.33316 5.62274V35.7581C7.33316 37.0113 8.34906 38.0272 9.60223 38.0272H32.0489C33.302 38.0272 34.3179 37.0113 34.3179 35.7581V5.62274C34.3179 4.36956 33.302 3.35366 32.0489 3.35366ZM23.3765 31.5333C24.1119 31.5333 24.7081 32.1295 24.7081 32.865C24.7081 33.5571 24.18 34.126 23.5047 34.1905L23.3765 34.1966H17.8112C17.0758 34.1966 16.4796 33.6004 16.4796 32.865C16.4796 32.1728 17.0077 31.604 17.683 31.5394L17.8112 31.5333H23.3765Z" fill="#FFD800"/>
</g>
</g>
<defs>
<clipPath id="clip0_50_1281">
<rect width="40" height="40" fill="white" transform="translate(0.669922 0.69043)"/>
</clipPath>
<clipPath id="clip1_50_1281">
<rect width="40" height="40" fill="white" transform="translate(0.669922 0.69043)"/>
</clipPath>
</defs>
</svg>
