<svg width="108" height="78" viewBox="0 0 108 78" fill="none" xmlns="http://www.w3.org/2000/svg">
<g clip-path="url(#clip0_338_3)">
<g clip-path="url(#clip1_338_3)">
<path d="M63.6689 77.446C43.9695 77.446 28.0001 61.4765 28.0001 41.7772C28.0001 22.0779 43.9695 6.1084 63.6689 6.1084C83.3682 6.1084 99.3376 22.0779 99.3376 41.7772C99.3376 61.4765 83.3682 77.446 63.6689 77.446Z" fill="#FFD800"/>
</g>
</g>
<path d="M34.225 18.0714V12.5H39.775V18.0714H34.225ZM33.3 6C30.2359 6 27.75 8.49554 27.75 11.5714V12.0357H14.06C12.8575 9.56339 10.3253 7.85714 7.4 7.85714C3.31844 7.85714 0 11.1884 0 15.2857C0 19.383 3.31844 22.7143 7.4 22.7143C10.3253 22.7143 12.8575 21.008 14.06 18.5357H21.7953C14.985 23.1321 10.36 30.7232 9.77031 39.4286H9.25C6.18594 39.4286 3.7 41.9241 3.7 45V52.4286C3.7 55.5045 6.18594 58 9.25 58H16.65C19.7141 58 22.2 55.5045 22.2 52.4286V45C22.2 41.9241 19.7141 39.4286 16.65 39.4286H16.2684C16.9506 31.6518 21.8762 25.1054 28.6981 22.1223C29.6925 23.5964 31.3806 24.5714 33.3 24.5714H40.7C42.6194 24.5714 44.2959 23.5964 45.3019 22.1223C52.1237 25.1054 57.0494 31.6518 57.7316 39.4286H57.35C54.2859 39.4286 51.8 41.9241 51.8 45V52.4286C51.8 55.5045 54.2859 58 57.35 58H64.75C67.8141 58 70.3 55.5045 70.3 52.4286V45C70.3 41.9241 67.8141 39.4286 64.75 39.4286H64.2297C63.6516 30.7232 59.015 23.1321 52.2047 18.5357H59.94C61.1425 21.008 63.6747 22.7143 66.6 22.7143C70.6816 22.7143 74 19.383 74 15.2857C74 11.1884 70.6816 7.85714 66.6 7.85714C63.6747 7.85714 61.1425 9.56339 59.94 12.0357H46.25V11.5714C46.25 8.49554 43.7641 6 40.7 6H33.3ZM10.175 45.9286H15.725V51.5H10.175V45.9286ZM58.275 51.5V45.9286H63.825V51.5H58.275Z" fill="black"/>
<defs>
<clipPath id="clip0_338_3">
<rect width="80" height="77.44" fill="white" transform="matrix(-1 0 0 1 108 0)"/>
</clipPath>
<clipPath id="clip1_338_3">
<rect width="80" height="77.4522" fill="white" transform="matrix(-1 0 0 1 108 -0.00585938)"/>
</clipPath>
</defs>
</svg>
