<svg width="81" height="79" viewBox="0 0 81 79" fill="none" xmlns="http://www.w3.org/2000/svg">
<g clip-path="url(#clip0_50_92)">
<g clip-path="url(#clip1_50_92)">
<path d="M44.4913 78.0856C64.1906 78.0856 80.1601 62.1162 80.1601 42.4168C80.1601 22.7175 64.1906 6.74805 44.4913 6.74805C24.792 6.74805 8.82251 22.7175 8.82251 42.4168C8.82251 62.1162 24.792 78.0856 44.4913 78.0856Z" fill="#FFD800"/>
<path d="M16.5228 53.113L16.2751 50.7846L14.014 51.3934C13.6041 51.5037 13.1565 51.5625 12.6875 51.5625C9.79324 51.5625 7.4375 49.2068 7.4375 46.3125C7.4375 45.7068 7.54424 45.1134 7.73392 44.5691L8.37542 42.7283L6.55163 42.0398C3.8874 41.0341 2 38.4568 2 35.4375C2 32.6243 3.64756 30.1869 6.04245 29.0557L8.32874 27.9758L6.75142 25.9996C6.04378 25.113 5.625 23.988 5.625 22.75C5.625 20.2357 7.39427 18.1303 9.76177 17.6124L11.8526 17.155L11.2548 15.0999C11.1301 14.6713 11.0625 14.192 11.0625 13.6875C11.0625 11.2381 12.7526 9.16577 15.024 8.59178L16.3742 8.25056L16.5226 6.8658C16.7545 4.70121 18.601 3 20.8438 3C23.2396 3 25.1875 4.94793 25.1875 7.34375V52.6562C25.1875 55.0521 23.2396 57 20.8438 57C18.6052 57 16.7558 55.3032 16.5228 53.113ZM41.4782 6.87282L41.631 8.2531L42.9777 8.5922C45.2577 9.1663 46.9375 11.2255 46.9375 13.6875C46.9375 14.192 46.8699 14.6713 46.7452 15.0999L46.1454 17.1619L48.2447 17.6138C50.6017 18.1212 52.375 20.2306 52.375 22.75C52.375 23.988 51.9562 25.1131 51.2486 25.9996L49.6713 27.9758L51.9576 29.0557C54.3524 30.1869 56 32.6243 56 35.4375C56 38.4568 54.1126 41.0341 51.4484 42.0398L49.6246 42.7283L50.2661 44.5691C50.4558 45.1134 50.5625 45.7068 50.5625 46.3125C50.5625 49.2068 48.2068 51.5625 45.3125 51.5625C44.8435 51.5625 44.3959 51.5037 43.986 51.3934L41.7249 50.7846L41.4772 53.113C41.2442 55.3032 39.3948 57 37.1562 57C34.7604 57 32.8125 55.0521 32.8125 52.6562V7.34375C32.8125 4.94793 34.7604 3 37.1562 3C39.3932 3 41.2372 4.69663 41.4782 6.87282Z" stroke="black" stroke-width="4"/>
</g>
</g>
<defs>
<clipPath id="clip0_50_92">
<rect width="80" height="77.44" fill="white" transform="translate(0.160034 0.639648)"/>
</clipPath>
<clipPath id="clip1_50_92">
<rect width="80" height="77.4522" fill="white" transform="translate(0.160034 0.633789)"/>
</clipPath>
</defs>
</svg>
