<svg width="91" height="73" viewBox="0 0 91 73" fill="none" xmlns="http://www.w3.org/2000/svg">
<path d="M57.2189 72.1646C75.4118 72.1646 90.1601 57.4163 90.1601 39.2234C90.1601 21.0305 75.4118 6.28223 57.2189 6.28223C39.026 6.28223 24.2777 21.0305 24.2777 39.2234C24.2777 57.4163 39.026 72.1646 57.2189 72.1646Z" fill="#FFD800"/>
<path d="M54.783 19.962L53.738 22.7123L56.6209 23.2997C61.669 24.3282 65.5 28.8495 65.5 34.2857C65.5 40.4998 60.5115 45.5 54.4 45.5H15.3C8.25352 45.5 2.5 39.7283 2.5 32.5714C2.5 26.9236 6.08353 22.1312 11.0571 20.3669L12.7869 19.7532L12.7196 17.919C12.7087 17.622 12.7 17.3786 12.7 17.1429C12.7 9.03238 19.2079 2.5 27.2 2.5C32.5604 2.5 37.2471 5.43123 39.7671 9.83459L41.1058 12.1739L43.338 10.6634C44.5544 9.8402 46.0242 9.35714 47.6 9.35714C51.8309 9.35714 55.3 12.8252 55.3 17.1429C55.3 18.1376 55.1141 19.0907 54.783 19.962Z" stroke="black" stroke-width="5"/>
</svg>
