<svg width="95" height="83" viewBox="0 0 95 83" fill="none" xmlns="http://www.w3.org/2000/svg">
<g clip-path="url(#clip0_338_2)">
<g clip-path="url(#clip1_338_2)">
<path d="M50.6689 82.446C30.9695 82.446 15.0001 66.4765 15.0001 46.7772C15.0001 27.0779 30.9695 11.1084 50.6689 11.1084C70.3682 11.1084 86.3376 27.0779 86.3376 46.7772C86.3376 66.4765 70.3682 82.446 50.6689 82.446Z" fill="#FFD800"/>
</g>
</g>
<path d="M16 0C17.6625 0 19 1.3375 19 3V8H37V3C37 1.3375 38.3375 0 40 0C41.6625 0 43 1.3375 43 3V8H48C52.4125 8 56 11.5875 56 16V18V24V56C56 60.4125 52.4125 64 48 64H8C3.5875 64 0 60.4125 0 56V24V18V16C0 11.5875 3.5875 8 8 8H13V3C13 1.3375 14.3375 0 16 0ZM50 24H6V56C6 57.1 6.9 58 8 58H48C49.1 58 50 57.1 50 56V24ZM41.125 37.125L27.125 51.125C25.95 52.3 24.05 52.3 22.8875 51.125L14.8875 43.125C13.7125 41.95 13.7125 40.05 14.8875 38.8875C16.0625 37.725 17.9625 37.7125 19.125 38.8875L25 44.7625L36.875 32.8875C38.05 31.7125 39.95 31.7125 41.1125 32.8875C42.275 34.0625 42.2875 35.9625 41.1125 37.125H41.125Z" fill="black"/>
<defs>
<clipPath id="clip0_338_2">
<rect width="80" height="77.44" fill="white" transform="matrix(-1 0 0 1 95 5)"/>
</clipPath>
<clipPath id="clip1_338_2">
<rect width="80" height="77.4522" fill="white" transform="matrix(-1 0 0 1 95 4.99414)"/>
</clipPath>
</defs>
</svg>
