<svg width="126" height="37" viewBox="0 0 126 37" fill="none" xmlns="http://www.w3.org/2000/svg">
<g clip-path="url(#clip0_50_318)">
<g clip-path="url(#clip1_50_318)">
<g clip-path="url(#clip2_50_318)">
<path d="M109.962 32.5196C110.822 32.2241 111.631 31.7981 112.362 31.2567C113.308 30.606 114.087 29.7409 114.635 28.7319C114.737 28.4936 114.781 28.2338 114.761 27.975L112.236 14.0882H116.781C116.781 14.0882 117.664 23.3044 117.79 24.4413C119.053 20.7796 121.704 14.0882 121.704 14.0882L125.997 14.2141L120.82 25.4492C119.499 28.5832 117.616 31.4496 115.266 33.9075C114.1 35.0176 112.663 35.8012 111.099 36.1793L109.962 32.5196ZM76.8858 35.2964L79.9166 19.6427C80.3156 17.7666 80.6107 15.8698 80.8005 13.9612H84.5882L84.3362 16.233C84.8491 15.4918 85.5257 14.8787 86.3136 14.441C87.1015 14.0034 87.9796 13.753 88.8798 13.7092C92.0366 13.7092 93.2985 16.36 93.2985 19.1377C93.2985 24.3133 90.0167 29.4889 84.9662 29.4889C84.0971 29.526 83.2317 29.3546 82.4424 28.9889H82.3164L81.1795 35.3014L76.8858 35.2964ZM83.7043 21.6625L82.9453 25.7022C83.4364 26.1236 84.0663 26.3481 84.7132 26.3321C87.113 26.3321 88.7528 22.4195 88.8788 19.6427C88.8788 18.5058 88.3789 17.2429 87.112 17.2429C85.5981 17.2439 84.2082 19.0117 83.7043 21.6625ZM0.00524902 31.5087C0.00524902 31.5087 2.53004 11.5634 2.65603 10.9324C2.78202 10.0475 2.78202 9.9215 3.79093 9.66952C4.92784 9.29055 5.93775 8.91259 6.94767 8.65861C7.70461 5.75885 9.84743 0.0743218 14.396 0.201311C14.7711 0.196903 15.1411 0.287022 15.4721 0.463352C15.8031 0.639682 16.0843 0.896541 16.2899 1.21023H16.4159C18.3097 1.21023 19.4466 2.85209 20.0776 4.61894C20.7085 4.36696 21.0875 4.24097 21.0875 4.24097C21.2687 4.20474 21.4553 4.20474 21.6364 4.24097C21.7204 4.24097 21.7364 4.25797 21.8444 4.36796C22.0974 4.49395 23.9912 6.3878 23.9912 6.3878C23.9912 6.3878 26.641 6.63977 26.891 6.63977C26.9554 6.64424 27.016 6.67142 27.0622 6.71648C27.1083 6.76154 27.137 6.82153 27.143 6.88575C27.1431 6.88775 27.1431 6.88976 27.143 6.89175C27.143 7.13873 30.7837 31.9017 30.9267 32.8686V32.8976L20.0706 35.2974L0.00524902 31.5087ZM8.33655 8.15465L11.1133 7.39671C11.8703 3.86201 13.3861 2.22214 14.901 1.5902C14.649 1.46321 14.522 1.33722 14.2701 1.33722C10.9883 1.33622 9.22148 5.62986 8.33755 8.15465H8.33655ZM12.5022 6.89275L16.1639 5.88184V5.62986C16.1742 4.59785 16.0033 3.57204 15.6589 2.59911C14.523 3.10507 13.2611 4.24097 12.5042 6.89275H12.5022ZM17.3018 4.99891V5.37688L18.9427 4.87692C18.8296 4.31064 18.5889 3.77759 18.2389 3.31828C17.8889 2.85896 17.4388 2.48545 16.9228 2.22614C17.1989 3.12373 17.3275 4.06014 17.3038 4.99891H17.3018ZM35.9842 28.6059L36.9942 25.5752C38.101 26.1045 39.3032 26.4055 40.5289 26.4601C41.7918 26.4601 42.4227 25.7032 42.4227 24.9443C42.4227 24.1853 41.9178 23.6824 40.6549 22.9244C39.14 22.0405 37.8781 20.7786 37.8781 19.0117C37.8781 15.981 40.4029 13.8352 44.1906 13.8352C46.8413 13.8352 47.7253 14.5921 47.7253 14.5921L46.7154 17.6219C45.8841 17.2329 44.9819 17.0185 44.0646 16.9919C42.8037 16.9919 42.0447 17.4919 42.0447 18.3808C42.0447 19.0117 42.5497 19.5157 43.6866 20.1476C45.3275 21.0326 46.7164 22.4205 46.7164 24.3143C46.7164 27.724 43.9396 29.6139 40.1529 29.6139C38.6971 29.6635 37.2553 29.3146 35.9832 28.6049L35.9842 28.6059ZM63.505 23.5554C63.505 18.3808 66.9147 13.7092 72.0892 13.7092C76.1289 13.7092 77.8968 16.6089 77.8968 19.6427C77.8968 24.9422 74.488 29.4889 69.4385 29.4889C68.6445 29.5448 67.8478 29.4296 67.1021 29.1511C66.3565 28.8726 65.6793 28.4373 65.1163 27.8747C64.5534 27.312 64.1178 26.635 63.8389 25.8895C63.5601 25.144 63.4445 24.3474 63.5 23.5534L63.505 23.5554ZM67.9236 23.4294C67.9236 24.9443 68.4285 26.2061 69.9434 26.2061C72.2152 26.2061 73.4781 22.2925 73.4781 19.5157C73.4781 18.2538 72.9782 16.9919 71.4583 16.9919C69.1855 16.9919 67.9236 21.0316 67.9236 23.4294ZM56.3096 29.3629L57.9504 20.7786C58.055 20.153 58.0972 19.5187 58.0764 18.8848C58.0764 17.8748 57.6984 17.2439 56.6875 17.2439C55.2986 17.2439 53.7878 19.0117 53.2788 21.7885L51.8899 29.2369H47.6013L51.7669 7.39671H56.0586L54.4177 15.981C54.9501 15.279 55.6369 14.7089 56.425 14.3149C57.2131 13.921 58.0813 13.7137 58.9623 13.7092C61.2341 13.7092 62.497 15.2241 62.497 17.7488C62.47 18.6787 62.3858 19.6061 62.2451 20.5256L60.6032 29.3619L56.3096 29.3629ZM101.378 29.2369L103.65 17.2439H101.63L102.261 13.9612H104.281L104.407 13.2042C104.674 11.3626 105.565 9.66844 106.931 8.40463C108.102 7.4458 109.585 6.95142 111.097 7.01574C111.873 6.98011 112.647 7.10892 113.37 7.39371L112.487 10.8024C112.041 10.6402 111.571 10.5549 111.097 10.5504C109.708 10.5504 108.825 11.8133 108.573 13.3272L108.447 14.0842H111.476L110.845 17.2409H107.945L105.672 29.2339L101.378 29.2369ZM93.4245 29.2369L96.3242 14.0872H100.617L97.7171 29.2369H93.4245ZM96.9592 10.1745C96.9462 9.84998 96.9984 9.52618 97.1129 9.22225C97.2273 8.91832 97.4016 8.64045 97.6254 8.4051C97.8491 8.16975 98.1179 7.98171 98.4157 7.85213C98.7135 7.72254 99.0342 7.65404 99.359 7.65069C99.6442 7.6376 99.9291 7.68414 100.195 7.78735C100.462 7.89055 100.703 8.04815 100.905 8.25008C101.107 8.45201 101.265 8.69383 101.368 8.9601C101.471 9.22637 101.518 9.51124 101.505 9.79651C101.525 10.1334 101.474 10.4708 101.354 10.7864C101.235 11.1019 101.049 11.3885 100.811 11.6272C100.572 11.8658 100.285 12.0511 99.9698 12.1708C99.6543 12.2904 99.3169 12.3417 98.98 12.3213C98.7008 12.3318 98.4225 12.2824 98.164 12.1764C97.9054 12.0704 97.6726 11.9103 97.481 11.7068C97.2895 11.5033 97.1438 11.2612 97.0536 10.9968C96.9634 10.7323 96.9308 10.4516 96.9582 10.1735L96.9592 10.1745Z" fill="#999999"/>
<path d="M16.4159 12.6981L15.027 16.7377C14.2037 16.3265 13.2966 16.1106 12.3763 16.1068C10.2304 16.1068 10.1035 17.3697 10.1035 17.7477C10.1035 19.5155 14.9031 20.2724 14.9031 24.5651C14.9031 27.9738 12.7572 30.1196 9.85347 30.1196C8.88868 30.1417 7.92989 29.9622 7.03838 29.5928C6.14687 29.2233 5.34224 28.6719 4.6759 27.9738L5.55983 24.9441C6.48677 25.7518 7.62551 26.2775 8.84156 26.4589C9.02664 26.4692 9.21181 26.4403 9.38497 26.3741C9.55813 26.308 9.71539 26.206 9.84646 26.075C9.97754 25.9439 10.0795 25.7866 10.1457 25.6135C10.2118 25.4403 10.2407 25.2551 10.2304 25.07C10.2304 22.6702 6.31677 22.5453 6.31677 18.6316C6.31677 15.3489 8.71657 12.1931 13.3862 12.1931C14.4241 12.0403 15.4837 12.2169 16.4159 12.6981Z" fill="#FFFFFE"/>
</g>
</g>
</g>
<defs>
<clipPath id="clip0_50_318">
<rect width="126" height="35.98" fill="white" transform="translate(0 0.200195)"/>
</clipPath>
<clipPath id="clip1_50_318">
<rect width="126" height="35.98" fill="white" transform="translate(0 0.200195)"/>
</clipPath>
<clipPath id="clip2_50_318">
<rect width="125.989" height="35.98" fill="white" transform="translate(0.00524902 0.200195)"/>
</clipPath>
</defs>
</svg>
