<svg width="97" height="81" viewBox="0 0 97 81" fill="none" xmlns="http://www.w3.org/2000/svg">
<g clip-path="url(#clip0_354_2)">
<g clip-path="url(#clip1_354_2)">
<path d="M52.6686 80.446C32.9693 80.446 16.9998 64.4765 16.9998 44.7772C16.9998 25.0779 32.9693 9.1084 52.6686 9.1084C72.3679 9.1084 88.3374 25.0779 88.3374 44.7772C88.3374 64.4765 72.3679 80.446 52.6686 80.446Z" fill="#FFD800"/>
</g>
</g>
<path d="M41.7398 0.359977C36.8156 -1.05061 31.6723 1.80939 30.2672 6.75292L29.5324 9.34116C29.0555 11.0235 28.1918 12.5765 27.0188 13.8706L20.4059 21.1694C19.2586 22.4376 19.3488 24.4047 20.6121 25.5565C21.8754 26.7082 23.8348 26.6176 24.982 25.3494L31.5949 18.0506C33.4125 16.0447 34.7402 13.6506 35.475 11.0494L36.2098 8.46116C36.6738 6.81763 38.3883 5.85998 40.0383 6.32586C41.6883 6.79174 42.6293 8.51292 42.1652 10.1694L41.4305 12.7576C40.6957 15.3329 39.5355 17.7659 38.0016 19.94C37.3312 20.8847 37.2539 22.127 37.7824 23.1623C38.3109 24.1976 39.368 24.8447 40.5281 24.8447H57.75C58.8844 24.8447 59.8125 25.7765 59.8125 26.9153C59.8125 27.7953 59.2582 28.5588 58.4719 28.8565C57.518 29.2188 56.7961 30.0212 56.5512 31.0176C56.3063 32.0141 56.5641 33.0623 57.2344 33.8259C57.5566 34.1882 57.75 34.667 57.75 35.1976C57.75 36.2071 57.0281 37.0482 56.0742 37.2294C55.0172 37.4365 54.1277 38.1741 53.7539 39.1965C53.3801 40.2188 53.5477 41.3576 54.218 42.2118C54.4887 42.5612 54.6562 43.0012 54.6562 43.4929C54.6562 44.36 54.1148 45.1235 53.3414 45.4212C51.859 46.0035 51.0598 47.6082 51.4852 49.1482C51.5367 49.3165 51.5625 49.5106 51.5625 49.7047C51.5625 50.8435 50.6344 51.7753 49.5 51.7753H36.9316C35.3074 51.7753 33.709 51.2965 32.3555 50.3906L24.402 45.0718C22.984 44.1141 21.0633 44.5023 20.1094 45.9388C19.1555 47.3753 19.5422 49.2906 20.973 50.2482L28.9266 55.5671C31.2984 57.1588 34.0828 58 36.9316 58H49.5C53.973 58 57.6082 54.4282 57.75 49.9765C59.632 48.4623 60.8438 46.1329 60.8438 43.5059C60.8438 42.9235 60.7793 42.3671 60.6762 41.8235C62.6613 40.3094 63.9375 37.9153 63.9375 35.2235C63.9375 34.3823 63.8086 33.5671 63.5766 32.8035C65.0719 31.2765 66 29.2059 66 26.9153C66 22.347 62.3133 18.6329 57.75 18.6329H45.852C46.4578 17.287 46.9734 15.8894 47.373 14.4659L48.1078 11.8776C49.5129 6.9341 46.6641 1.77057 41.7398 0.359977ZM4.125 20.7035C1.84336 20.7035 0 22.5541 0 24.8447V53.8329C0 56.1235 1.84336 57.9741 4.125 57.9741H12.375C14.6566 57.9741 16.5 56.1235 16.5 53.8329V24.8447C16.5 22.5541 14.6566 20.7035 12.375 20.7035H4.125Z" fill="black"/>
<defs>
<clipPath id="clip0_354_2">
<rect width="80" height="77.44" fill="white" transform="matrix(-1 0 0 1 97 3)"/>
</clipPath>
<clipPath id="clip1_354_2">
<rect width="80" height="77.4522" fill="white" transform="matrix(-1 0 0 1 97 2.99414)"/>
</clipPath>
</defs>
</svg>
