<svg width="161" height="68" viewBox="0 0 161 68" fill="none" xmlns="http://www.w3.org/2000/svg">
<path d="M19.0173 0.394531H24.2337V19.6652H34.6759V24.2436H19.0173V0.394531Z" fill="white"/>
<path d="M35.9612 0.394531H41.2057V19.6652H51.6479V24.2436H35.9612V0.394531Z" fill="white"/>
<path d="M71.3971 23.0423C69.2205 24.1119 66.8281 24.656 64.4075 24.6185C56.7331 24.6185 51.4229 19.3177 51.4229 12.3656C51.4229 5.41352 56.7237 0.0470103 64.4075 0.0470103C66.7061 0.0188643 68.9766 0.525493 71.05 1.51999V6.82082C69.1079 5.50734 66.8187 4.78493 64.4732 4.75678C59.8479 4.75678 56.7143 7.99358 56.7143 12.3093C56.7143 16.625 59.7635 19.9087 64.689 19.9087C67.1002 19.8806 69.4457 19.1113 71.4065 17.7133L71.3971 23.0423Z" fill="white"/>
<path fill-rule="evenodd" clip-rule="evenodd" d="M54.3312 39.7887H1.18213V39.3027H54.3312V39.7887Z" fill="white"/>
<path d="M1.18213 40.7275C1.83501 40.7275 2.36427 40.1983 2.36427 39.5454C2.36427 38.8925 1.83501 38.3633 1.18213 38.3633C0.529258 38.3633 0 38.8925 0 39.5454C0 40.1983 0.529258 40.7275 1.18213 40.7275Z" fill="white"/>
<path fill-rule="evenodd" clip-rule="evenodd" d="M159.025 39.7506H105.876V39.2646H159.025V39.7506Z" fill="white"/>
<path d="M159.025 40.6895C159.678 40.6895 160.207 40.1602 160.207 39.5073C160.207 38.8545 159.678 38.3252 159.025 38.3252C158.372 38.3252 157.843 38.8545 157.843 39.5073C157.843 40.1602 158.372 40.6895 159.025 40.6895Z" fill="white"/>
<path d="M79.3155 39.5176H72.1758V40.3244H79.3155V39.5176Z" fill="white"/>
<path d="M79.3155 39.5176H72.1758V40.3244H79.3155V39.5176Z" fill="white"/>
<path d="M60.7297 40.3244C60.5796 40.3244 60.073 40.2681 60.073 39.5176H61.0112V40.3244H60.786C60.7673 40.3244 60.7485 40.3244 60.7297 40.3244Z" fill="white"/>
<path d="M60.0823 39.5176C60.0823 40.4183 60.7859 40.3244 60.7859 40.3244H61.0111V39.5176H60.0823Z" fill="white"/>
<path d="M89.8609 47.3046C87.309 47.3046 85.1136 45.4845 84.6445 42.9702C84.0441 42.9139 83.0027 42.7168 82.7963 41.9381C82.5054 40.8498 82.0833 40.7091 82.0833 40.7091C82.0833 40.7091 81.6329 41.4221 81.4453 41.4221C81.389 41.4221 81.3608 41.3658 81.3608 41.2439V39.5176H85.9768C86.8212 40.8498 88.2848 41.6473 89.8609 41.6473C89.8891 41.6473 89.9172 41.6473 89.936 41.6473H89.9923C89.6827 40.9812 89.5232 40.2588 89.5138 39.5176H90.2081C90.2175 40.2306 90.3957 40.9343 90.7241 41.5629C91.9625 41.3189 93.0508 40.5777 93.7357 39.5176H94.5426C95.2837 40.9249 95.3588 42.5855 94.749 44.0491H94.8146C97.329 44.0397 99.3649 42.0226 99.4212 39.5176H100.115C100.059 42.4072 97.7043 44.734 94.8146 44.7434C94.6739 44.7434 94.5332 44.734 94.4018 44.7246C93.4543 46.3289 91.728 47.314 89.8609 47.3046ZM85.6109 40.2025C84.6164 42.548 85.7141 45.25 88.0596 46.2445C90.0767 47.0982 92.4035 46.4134 93.6513 44.612C92.3003 44.3118 91.1181 43.4862 90.3676 42.3134C90.1893 42.3322 90.0204 42.3416 89.8609 42.3416C88.1816 42.3509 86.6054 41.5535 85.6109 40.2025ZM94.111 40.2025C93.3792 41.1876 92.319 41.8912 91.1275 42.1821C91.8312 43.1296 92.8632 43.7676 94.0172 43.974C94.5895 42.7919 94.627 41.4221 94.111 40.2025Z" fill="white"/>
<path d="M99.4306 39.5172C99.3837 42.0316 97.3384 44.0487 94.824 44.0487C94.8053 44.0487 94.7771 44.0487 94.7584 44.0487C95.3776 42.5851 95.3025 40.9245 94.5519 39.5172H93.7451C93.0602 40.5774 91.9719 41.3185 90.7335 41.5625C90.4051 40.9339 90.2268 40.2302 90.2175 39.5172H89.5232C89.5326 40.249 89.6921 40.9714 90.0017 41.6469C89.9548 41.6469 89.9078 41.6563 89.8609 41.6563C88.2848 41.6563 86.8212 40.8494 85.9768 39.5266H85.1793V39.5547C85.1793 39.5453 85.1699 39.536 85.1699 39.5266H81.3608V41.2435C81.3608 41.8533 82.0833 40.7087 82.0833 40.7087C82.0833 40.7087 82.5054 40.8401 82.7963 41.9378C83.0027 42.7071 84.0066 42.9135 84.6445 42.9698C85.1793 45.8501 87.9376 47.7452 90.8179 47.2104C92.319 46.929 93.6231 46.0283 94.4018 44.7148C94.5426 44.7242 94.6739 44.7336 94.8146 44.7336C97.7137 44.7336 100.078 42.4069 100.115 39.5078L99.4306 39.5172ZM89.8609 46.61C87.309 46.61 85.245 44.546 85.245 41.994C85.245 41.3748 85.367 40.7744 85.6109 40.2021C86.6054 41.5437 88.1816 42.3412 89.8609 42.3412C90.0298 42.3412 90.1987 42.3318 90.3676 42.313C91.1181 43.4764 92.3003 44.302 93.6513 44.6116C92.7881 45.8594 91.3714 46.61 89.8609 46.61ZM94.0172 43.983C92.8632 43.7766 91.8218 43.1387 91.1275 42.1911C92.319 41.9002 93.3792 41.1966 94.111 40.2115C94.6176 41.4217 94.5895 42.7915 94.0172 43.983Z" fill="white"/>
<path d="M85.1699 39.5176C85.1699 39.5274 85.1797 39.5372 85.1797 39.5469V39.5176H85.1699Z" fill="white"/>
<path d="M85.1699 39.5176C85.1699 39.5274 85.1797 39.5372 85.1797 39.5469V39.5176H85.1699Z" fill="white"/>
<path d="M70.7686 40.5308C70.6935 40.5308 70.6372 40.4745 70.6372 40.3995V39.5176H70.9093V40.4089C70.9093 40.4839 70.853 40.5402 70.7779 40.5402L70.7686 40.5308Z" fill="white"/>
<path d="M70.6465 39.5176V40.4089C70.6465 40.4839 70.7028 40.5402 70.7778 40.5402H70.7966C70.8623 40.5402 70.9186 40.4839 70.9279 40.4182V39.527H70.6465V39.5176Z" fill="white"/>
<path d="M71.9224 40.5308C71.8473 40.5308 71.791 40.4745 71.791 40.3995V39.5176H72.0631V40.4089C72.0631 40.4839 72.0068 40.5402 71.9317 40.5402L71.9224 40.5308Z" fill="white"/>
<path d="M71.791 39.5176V40.4089C71.791 40.4839 71.8473 40.5402 71.9224 40.5402H71.9411C72.0068 40.5402 72.0631 40.4839 72.0631 40.4089V39.5176H71.791Z" fill="white"/>
<path d="M71.2657 40.878C71.1343 40.878 71.0217 40.7748 71.0217 40.634V39.5176H71.6785V40.634C71.6785 40.7654 71.5753 40.878 71.4345 40.878H71.2657Z" fill="white"/>
<path d="M71.0312 39.5176V40.634C71.0312 40.7654 71.1438 40.878 71.2752 40.878H71.4534C71.5848 40.878 71.6974 40.7748 71.6974 40.634V39.5176H71.0312Z" fill="white"/>
<path d="M79.672 41.272C79.5313 41.272 79.4187 41.1594 79.4187 41.0187V39.5176H79.9629V41.0187C79.9629 41.1594 79.8503 41.272 79.7095 41.272H79.672Z" fill="white"/>
<path d="M79.4187 39.5176V41.0187C79.4187 41.1594 79.5313 41.272 79.672 41.272H79.7095C79.8503 41.272 79.9629 41.1594 79.9629 41.0187V39.5176H79.4187Z" fill="white"/>
<path d="M80.4884 41.6094C80.2538 41.6094 80.0662 41.4217 80.0662 41.1872V39.5078H81.2483V41.1872C81.2483 41.4217 81.0607 41.6094 80.8261 41.6094H80.4884Z" fill="white"/>
<path d="M80.0754 39.5176V41.197C80.0754 41.4315 80.2631 41.6191 80.4976 41.6191H80.8448C81.0793 41.6191 81.267 41.4315 81.267 41.197V39.5176H80.0754Z" fill="white"/>
<path d="M61.2551 40.5308C61.1801 40.5308 61.1238 40.4745 61.1238 40.3995V39.5176H61.4052V40.4089C61.4052 40.4839 61.349 40.5402 61.2739 40.5402L61.2551 40.5308Z" fill="white"/>
<path d="M61.1238 39.5176V40.4089C61.1238 40.4745 61.1801 40.5402 61.2457 40.5402H61.2645C61.3396 40.5402 61.3959 40.4839 61.3959 40.4089V39.5176H61.1238Z" fill="white"/>
<path d="M62.3997 40.5308C62.3246 40.5308 62.2683 40.4745 62.2683 40.3995V39.5176H62.5498V40.4089C62.5498 40.4839 62.4935 40.5402 62.4184 40.5402L62.3997 40.5308Z" fill="white"/>
<path d="M62.2683 39.5176V40.4089C62.2683 40.4839 62.3246 40.5308 62.3997 40.5308H62.4184C62.4935 40.5308 62.5498 40.4745 62.5498 40.3995V39.5176H62.2683Z" fill="white"/>
<path d="M61.7525 40.878C61.6211 40.878 61.5085 40.7748 61.5085 40.634V39.5176H62.1653V40.634C62.1653 40.7654 62.0527 40.878 61.9213 40.878H61.7525Z" fill="white"/>
<path d="M61.5085 39.5176V40.634C61.5085 40.7654 61.6117 40.878 61.7525 40.878H61.9307C62.0621 40.878 62.1747 40.7748 62.1747 40.634V39.5176H61.5085Z" fill="white"/>
<path d="M63.0002 45.7848L62.9908 41.2157H62.6531V39.5176H70.534V41.2157H70.1962V42.4823H66.9313V41.591H67.3816V40.5308H65.4583V41.591H65.9086V42.4823H63.9384V43.4486H65.9086V44.8935H66.9313V43.4486H70.1962V45.7848H63.0002Z" fill="white"/>
<path d="M62.6531 39.5176V39.8929V40.3244V40.4089V41.2157H62.9908V45.7848H70.1962V43.4486H66.9313V44.8935H65.9086V43.4486H63.9384V42.4823H65.9086V41.591H65.4583V40.5308H67.3816V41.591H66.9313V42.4823H70.1962V41.2157H70.534V40.4089V40.3244V39.8929V39.5176H62.6531Z" fill="white"/>
<path d="M70.534 38.71H62.6531V39.5168H70.534V38.71Z" fill="white"/>
<path d="M70.534 38.71H62.6531V39.5168H70.534V38.71Z" fill="white"/>
<path d="M60.0823 39.5168C60.0823 38.7663 60.5795 38.71 60.739 38.71C60.7578 38.71 60.7765 38.71 60.7953 38.71H61.0205V39.5168H60.0823Z" fill="white"/>
<path d="M61.0111 38.7108H60.7859C60.7859 38.7108 60.0823 38.617 60.0823 39.5177H61.0205L61.0111 38.7108Z" fill="white"/>
<path d="M79.3155 38.71H72.1758V39.5168H79.3155V38.71Z" fill="white"/>
<path d="M79.3155 38.71H72.1758V39.5168H79.3155V38.71Z" fill="white"/>
<path d="M99.4305 39.5173V39.4423C99.4305 36.8997 97.3664 34.8357 94.8239 34.8357C94.7958 34.8357 94.7676 34.8357 94.7489 34.8357H94.6926C95.0116 35.53 95.1804 36.2805 95.1804 37.0405C95.1804 37.9036 94.9646 38.7574 94.5612 39.5173H93.7544C93.0601 38.429 91.9437 37.6878 90.6771 37.4627C90.3769 38.0819 90.2267 38.7574 90.2267 39.4423V39.5173H89.5325V39.4423C89.5325 38.7386 89.6732 38.0444 89.9453 37.3876H89.8796C88.3034 37.3876 86.8398 38.1945 85.9955 39.5173H81.3701V37.8004C81.3701 37.6878 81.3983 37.6222 81.4546 37.6222C81.6422 37.6222 82.0925 38.3258 82.0925 38.3352C82.1019 38.3446 82.5147 38.1945 82.8056 37.1062C83.012 36.3274 84.0534 36.121 84.6538 36.0741C85.1886 33.1939 87.9563 31.2987 90.8366 31.8335C92.272 32.0962 93.5292 32.9499 94.3173 34.1696C94.4956 34.1508 94.6644 34.1414 94.8239 34.1414C97.7511 34.1414 100.125 36.5151 100.134 39.4517V39.5267L99.4305 39.5173ZM89.8608 32.4245C87.3183 32.4339 85.2637 34.4886 85.2543 37.0311C85.2543 37.6503 85.3762 38.2601 85.6202 38.8231C86.6147 37.472 88.1908 36.6746 89.8702 36.684C90.0109 36.684 90.1517 36.6933 90.283 36.7027C91.0148 35.4924 92.197 34.6199 93.5667 34.2822C92.7036 33.1094 91.3244 32.4245 89.8608 32.4245ZM93.9514 34.9108C92.7599 35.1359 91.7185 35.8208 91.0336 36.8247C92.2626 37.1062 93.3603 37.8192 94.1109 38.8324C94.6457 37.5659 94.58 36.1304 93.9514 34.9108Z" fill="white"/>
<path d="M94.8239 34.1319C94.655 34.1319 94.4862 34.1413 94.3173 34.1601C92.7317 31.702 89.448 30.989 86.9899 32.5839C85.7609 33.372 84.9165 34.6386 84.6538 36.0646C84.0158 36.1209 83.012 36.3273 82.8056 37.0966C82.5147 38.1943 82.0925 38.3257 82.0925 38.3257C82.0925 38.3257 81.3701 37.1811 81.3701 37.7909V39.5172H85.1792C85.1792 39.5078 85.1886 39.4984 85.1886 39.4891V39.5172H85.9861C86.8305 38.1943 88.294 37.3875 89.8702 37.3875C89.889 37.3875 89.9171 37.3875 89.9359 37.3875C89.6638 38.0348 89.5231 38.7385 89.5231 39.4421C89.5231 39.4703 89.5231 39.4891 89.5231 39.5172H90.2174C90.2174 39.4891 90.2174 39.4703 90.2174 39.4421C90.2174 38.7573 90.3768 38.0818 90.6677 37.4625C91.9343 37.6877 93.0507 38.4383 93.745 39.5172H94.5518C95.3212 38.063 95.3775 36.3273 94.6832 34.8356C94.7301 34.8356 94.777 34.8262 94.8239 34.8262C97.3664 34.8262 99.4305 36.8902 99.4399 39.4421C99.4399 39.4703 99.4399 39.4891 99.4399 39.5172H100.134C100.134 39.4891 100.134 39.4703 100.134 39.4421C100.125 36.5056 97.7511 34.1319 94.8239 34.1319ZM90.283 36.712C90.1423 36.7026 90.0109 36.6932 89.8702 36.6932C88.1908 36.6932 86.6147 37.4907 85.6202 38.8323C84.6257 36.4868 85.7234 33.7848 88.0689 32.7903C90.0297 31.9647 92.3002 32.5839 93.5667 34.2914C92.1876 34.6292 91.0054 35.5017 90.283 36.712ZM91.0336 36.8246C91.7185 35.8301 92.7693 35.1452 93.9608 34.9106C94.5988 36.1303 94.655 37.5657 94.1203 38.8323C93.3603 37.8191 92.2626 37.106 91.0336 36.8246Z" fill="white"/>
<path d="M85.189 39.4893C85.189 39.499 85.1792 39.5088 85.1792 39.5186H85.189V39.4893Z" fill="white"/>
<path d="M85.189 39.4893C85.189 39.499 85.1792 39.5088 85.1792 39.5186H85.189V39.4893Z" fill="white"/>
<path d="M70.6465 39.5168V38.6255C70.6465 38.5505 70.7028 38.4942 70.7778 38.4942C70.8529 38.4848 70.9186 38.5411 70.9279 38.6162V38.6255V39.5168H70.6465Z" fill="white"/>
<path d="M70.7966 38.5039H70.7778C70.7122 38.5039 70.6465 38.5602 70.6465 38.6353V39.5265H70.9186V38.6353C70.9186 38.5602 70.8623 38.5039 70.7966 38.5039Z" fill="white"/>
<path d="M71.791 39.5168V38.6255C71.791 38.5505 71.8473 38.4942 71.9224 38.4942C71.9974 38.4848 72.0631 38.5411 72.0725 38.6162V38.6255V39.5168H71.791Z" fill="white"/>
<path d="M71.9411 38.5039H71.9224C71.8567 38.5039 71.791 38.5602 71.791 38.6353V39.5265H72.0631V38.6353C72.0725 38.5602 72.0162 38.5039 71.9411 38.5039Z" fill="white"/>
<path d="M71.0312 39.5176V38.4012C71.0312 38.2698 71.1438 38.1572 71.2752 38.1572H71.4534C71.5848 38.1572 71.6974 38.2604 71.6974 38.4012V39.5176H71.0312Z" fill="white"/>
<path d="M71.4439 38.1572H71.2657C71.1343 38.1572 71.0217 38.2604 71.0217 38.4012V39.5176H71.6785V38.4012C71.6879 38.2698 71.5753 38.1572 71.4439 38.1572Z" fill="white"/>
<path d="M79.4187 39.5171V38.016C79.4187 37.8753 79.5313 37.7627 79.672 37.7627H79.7095C79.8503 37.7627 79.9629 37.8753 79.9629 38.016V39.5171H79.4187Z" fill="white"/>
<path d="M79.7095 37.7627H79.672C79.5313 37.7627 79.4187 37.8753 79.4187 38.016V39.5171H79.9629V38.016C79.9629 37.8753 79.8503 37.7627 79.7095 37.7627Z" fill="white"/>
<path d="M80.0754 39.5176V37.8382C80.0754 37.6037 80.2631 37.416 80.4976 37.416H80.8448C81.0793 37.416 81.267 37.6037 81.267 37.8382V39.5176H80.0754Z" fill="white"/>
<path d="M80.8355 37.4248H80.4884C80.2538 37.4248 80.0662 37.6124 80.0662 37.847V39.5264H81.2483V37.847C81.2577 37.6124 81.07 37.4248 80.8355 37.4248Z" fill="white"/>
<path d="M61.1238 39.5168V38.6255C61.1238 38.5505 61.1801 38.4942 61.2551 38.4942C61.3302 38.4848 61.3959 38.5411 61.4052 38.6162V38.6255V39.5168H61.1238Z" fill="white"/>
<path d="M61.2738 38.5039H61.255C61.1893 38.5039 61.1331 38.5602 61.1331 38.6353V39.5265H61.4051V38.6353C61.3957 38.5602 61.3395 38.5039 61.2738 38.5039Z" fill="white"/>
<path d="M62.2683 39.5168V38.6255C62.2683 38.5505 62.3246 38.4942 62.3997 38.4942C62.4747 38.4848 62.5404 38.5411 62.5498 38.6162V38.6255V39.5168H62.2683Z" fill="white"/>
<path d="M62.4184 38.5039H62.3997C62.334 38.5039 62.2683 38.5602 62.2683 38.6353V39.5265H62.5498V38.6353C62.5498 38.5602 62.4935 38.5039 62.4184 38.5039Z" fill="white"/>
<path d="M61.5085 39.5176V38.4012C61.5085 38.2698 61.6117 38.1572 61.7525 38.1572H61.9307C62.0621 38.1572 62.1747 38.2604 62.1747 38.4012V39.5176H61.5085Z" fill="white"/>
<path d="M61.9212 38.1572H61.743C61.6116 38.1572 61.499 38.2604 61.499 38.4012V39.5176H62.1558V38.4012C62.1651 38.2604 62.0526 38.1572 61.9212 38.1572Z" fill="white"/>
<path d="M10.9207 65.0834V55.9453H13.4257C14.392 55.9453 15.1895 56.3112 15.7993 57.043C16.4091 57.7748 16.7187 58.713 16.7187 59.867V61.1711C16.7187 62.3251 16.4091 63.2633 15.7993 63.9951C15.1895 64.7269 14.392 65.0834 13.4257 65.0834H10.9207ZM12.1966 56.921V64.1264H13.3881C14.0261 64.1264 14.5327 63.8544 14.908 63.3008C15.2739 62.7473 15.4615 62.0436 15.4615 61.1711V59.8576C15.4615 58.9945 15.2739 58.2908 14.908 57.7467C14.5421 57.2025 14.0355 56.9304 13.3881 56.9304H12.1966V56.921Z" fill="white"/>
<path d="M21.6724 65.2148C20.8656 65.2148 20.2182 64.9334 19.7303 64.3705C19.2425 63.8075 18.9985 63.0945 18.9985 62.222V61.2275C18.9985 60.3362 19.2331 59.6044 19.7116 59.0321C20.1901 58.4504 20.7905 58.1689 21.5223 58.1689C22.2916 58.1689 22.8827 58.4316 23.2955 58.957C23.7083 59.4824 23.9147 60.1861 23.9147 61.0774V61.9593H20.2651V62.2314C20.2651 62.813 20.3965 63.3009 20.6498 63.6856C20.9031 64.0702 21.269 64.2579 21.7475 64.2579C22.0946 64.2579 22.4042 64.2016 22.6481 64.089C22.9015 63.9764 23.136 63.8169 23.3612 63.6011L23.7646 64.3892C23.5488 64.6332 23.2674 64.8302 22.9015 64.9897C22.5543 65.1398 22.1415 65.2148 21.6724 65.2148ZM21.5223 59.1353C21.1564 59.1353 20.8562 59.3135 20.6404 59.6794C20.4152 60.036 20.2933 60.4957 20.2745 61.0492H22.6669V60.7865C22.6669 60.2987 22.5731 59.9046 22.3761 59.595C22.179 59.2948 21.8976 59.1353 21.5223 59.1353Z" fill="white"/>
<path d="M27.6112 65.0833H26.3352V55.2979H27.6112V65.0833Z" fill="white"/>
<path d="M31.7205 56.5175H30.4446V55.2979H31.7205V56.5175ZM31.7205 65.0833H30.4446V58.2907H31.7205V65.0833Z" fill="white"/>
<path d="M36.4398 63.0477L36.543 63.5731H36.5806L36.6838 63.0477L37.8378 58.3004H39.1512L37.1247 65.0836H35.9989L33.9536 58.291H35.2671L36.4398 63.0477Z" fill="white"/>
<path d="M43.6451 65.2148C42.8382 65.2148 42.1909 64.9334 41.703 64.3705C41.2151 63.8075 40.9712 63.0945 40.9712 62.222V61.2275C40.9712 60.3362 41.2057 59.6044 41.6842 59.0321C42.1627 58.4504 42.7632 58.1689 43.495 58.1689C44.2643 58.1689 44.8553 58.4316 45.2682 58.957C45.681 59.4824 45.8874 60.1861 45.8874 61.0774V61.9593H42.2378V62.2314C42.2378 62.813 42.3691 63.3009 42.6224 63.6856C42.8757 64.0702 43.2416 64.2579 43.7201 64.2579C44.0673 64.2579 44.3769 64.2016 44.6208 64.089C44.8741 63.9764 45.1087 63.8169 45.3338 63.6011L45.7373 64.3892C45.5215 64.6332 45.24 64.8302 44.8741 64.9897C44.527 65.1398 44.1142 65.2148 43.6451 65.2148ZM43.5043 59.1353C43.1384 59.1353 42.8382 59.3135 42.6224 59.6794C42.3973 60.036 42.2753 60.4957 42.2565 61.0492H44.6489V60.7865C44.6489 60.2987 44.5551 59.9046 44.3581 59.595C44.1611 59.2948 43.8796 59.1353 43.5043 59.1353Z" fill="white"/>
<path d="M51.1601 59.3693L50.5596 59.3411C50.297 59.3411 50.0812 59.4162 49.9029 59.5757C49.7246 59.7352 49.5933 59.9603 49.5089 60.2512V65.0923H48.2329V58.2997H49.3963L49.4901 59.3223C49.6308 58.9658 49.8185 58.6844 50.053 58.478C50.2876 58.2716 50.5503 58.1777 50.8505 58.1777C50.9349 58.1777 51.0194 58.1871 51.1038 58.1965C51.1882 58.2153 51.2633 58.2246 51.3102 58.2528L51.1601 59.3693Z" fill="white"/>
<path d="M54.7723 56.5175H53.4963V55.2979H54.7723V56.5175ZM54.7723 65.0833H53.4963V58.2907H54.7723V65.0833Z" fill="white"/>
<path d="M58.6752 58.3003L58.7409 59.3042C58.9285 58.9476 59.1631 58.6756 59.4539 58.4692C59.7447 58.2721 60.0731 58.1689 60.4296 58.1689C61.0207 58.1689 61.4898 58.3847 61.8182 58.8257C62.1465 59.2666 62.3154 59.9421 62.3154 60.871V65.0835H61.0488V60.8897C61.0488 60.2611 60.955 59.8108 60.7768 59.5575C60.5985 59.2948 60.3264 59.1728 59.9605 59.1728C59.6978 59.1728 59.4727 59.2573 59.2663 59.4168C59.0692 59.5762 58.9004 59.792 58.7784 60.0735V65.1023H57.5024V58.3097H58.6752V58.3003Z" fill="white"/>
<path d="M64.7358 61.4239C64.7358 60.4482 64.9329 59.6601 65.3363 59.069C65.7397 58.4686 66.2933 58.1777 67.0063 58.1777C67.3534 58.1777 67.6536 58.2622 67.907 58.4217C68.1603 58.5812 68.3854 58.8157 68.5731 59.1253L68.6669 58.3091H69.7646V65.0641C69.7646 65.9367 69.53 66.6122 69.0703 67.1C68.6106 67.5879 67.9633 67.8318 67.1376 67.8318C66.8562 67.8318 66.5466 67.7849 66.2276 67.7005C65.8992 67.616 65.6178 67.4941 65.3551 67.344L65.6271 66.387C65.8429 66.5183 66.0775 66.6215 66.3308 66.6872C66.5841 66.7623 66.8562 66.7998 67.1283 66.7998C67.588 66.7998 67.9351 66.6497 68.1603 66.3588C68.3854 66.0586 68.498 65.6271 68.498 65.0548V64.4355C68.3198 64.6982 68.104 64.8859 67.8507 65.0266C67.5974 65.158 67.3159 65.2236 66.9969 65.2236C66.2933 65.2236 65.7397 64.9515 65.3363 64.4074C64.9422 63.8632 64.7358 63.1502 64.7358 62.2589V61.4239ZM66.0118 62.2589C66.0118 62.8594 66.115 63.3378 66.3214 63.6944C66.5278 64.0509 66.8562 64.2291 67.3065 64.2291C67.5786 64.2291 67.8225 64.1541 68.0102 64.0133C68.2072 63.8726 68.3667 63.6662 68.4886 63.4129V60.0354C68.3667 59.7633 68.2072 59.5569 68.0102 59.3974C67.8131 59.2379 67.588 59.1628 67.3159 59.1628C66.8749 59.1628 66.5466 59.3693 66.3308 59.7914C66.115 60.2136 66.0118 60.7578 66.0118 61.4239V62.2589Z" fill="white"/>
<path d="M76.1726 61.265C76.1726 60.3643 76.4072 59.6232 76.8763 59.0415C77.3454 58.4598 77.9927 58.1689 78.809 58.1689C79.6252 58.1689 80.2725 58.4598 80.7416 59.0415C81.2107 59.6232 81.4547 60.3643 81.4547 61.265V62.1282C81.4547 63.0382 81.2201 63.7794 80.751 64.3517C80.2819 64.924 79.6346 65.2148 78.8183 65.2148C77.9927 65.2148 77.3454 64.924 76.8763 64.3517C76.4072 63.7794 76.1726 63.0382 76.1726 62.1282V61.265ZM77.4486 62.1282C77.4486 62.7474 77.5611 63.254 77.7863 63.6574C78.0115 64.0515 78.3586 64.2579 78.8183 64.2579C79.2687 64.2579 79.6064 64.0608 79.841 63.6574C80.0661 63.2634 80.1787 62.7474 80.1787 62.1282V61.2556C80.1787 60.6458 80.0661 60.1392 79.841 59.7357C79.6158 59.3323 79.2687 59.1353 78.8183 59.1353C78.3586 59.1353 78.0115 59.3323 77.7863 59.7357C77.5611 60.1298 77.4486 60.6458 77.4486 61.2556V62.1282Z" fill="white"/>
<path d="M85.0293 58.3003L85.095 59.3042C85.2826 58.9476 85.5172 58.6756 85.808 58.4692C86.0989 58.2721 86.4272 58.1689 86.7837 58.1689C87.3748 58.1689 87.8439 58.3847 88.1723 58.8257C88.5006 59.2666 88.6695 59.9421 88.6695 60.871V65.0835H87.3936V60.8897C87.3936 60.2611 87.2998 59.8108 87.1215 59.5575C86.9432 59.2948 86.6711 59.1728 86.3053 59.1728C86.0426 59.1728 85.8174 59.2573 85.611 59.4168C85.414 59.5762 85.2451 59.792 85.1231 60.0735V65.1023H83.8472V58.3097H85.0293V58.3003Z" fill="white"/>
<path d="M96.7662 61.4713V65.0834H95.4902V55.9453H98.4925C99.3462 55.9453 100.012 56.1986 100.5 56.7053C100.988 57.2119 101.232 57.878 101.232 58.7036C101.232 59.5386 100.988 60.2047 100.5 60.7114C100.012 61.218 99.3462 61.4713 98.4925 61.4713H96.7662ZM96.7662 60.505H98.4925C98.971 60.505 99.3369 60.3361 99.5808 59.9983C99.8247 59.6606 99.9467 59.2384 99.9467 58.7224C99.9467 58.2064 99.8247 57.7748 99.5808 57.4277C99.3369 57.0899 98.971 56.9117 98.4831 56.9117H96.7568V60.505H96.7662Z" fill="white"/>
<path d="M106.57 59.3693L105.97 59.3411C105.707 59.3411 105.491 59.4162 105.313 59.5757C105.135 59.7352 105.003 59.9603 104.919 60.2512V65.0923H103.643V58.2997H104.806L104.9 59.3223C105.041 58.9658 105.229 58.6844 105.463 58.478C105.698 58.2716 105.96 58.1777 106.261 58.1777C106.345 58.1777 106.43 58.1871 106.514 58.1965C106.598 58.2153 106.673 58.2246 106.72 58.2528L106.57 59.3693Z" fill="white"/>
<path d="M108.447 61.265C108.447 60.3643 108.681 59.6232 109.15 59.0415C109.62 58.4598 110.267 58.1689 111.083 58.1689C111.899 58.1689 112.547 58.4598 113.016 59.0415C113.485 59.6232 113.729 60.3643 113.729 61.265V62.1282C113.729 63.0382 113.494 63.7794 113.025 64.3517C112.556 64.924 111.909 65.2148 111.093 65.2148C110.267 65.2148 109.62 64.924 109.15 64.3517C108.681 63.7794 108.447 63.0382 108.447 62.1282V61.265ZM109.723 62.1282C109.723 62.7474 109.835 63.254 110.06 63.6574C110.286 64.0515 110.633 64.2579 111.093 64.2579C111.543 64.2579 111.881 64.0608 112.115 63.6574C112.34 63.2634 112.453 62.7474 112.453 62.1282V61.2556C112.453 60.6458 112.34 60.1392 112.115 59.7357C111.89 59.3323 111.543 59.1353 111.093 59.1353C110.633 59.1353 110.286 59.3323 110.06 59.7357C109.835 60.1298 109.723 60.6458 109.723 61.2556V62.1282Z" fill="white"/>
<path d="M117.313 58.3003L117.378 59.2197C117.566 58.882 117.801 58.6287 118.082 58.441C118.363 58.2628 118.701 58.1689 119.076 58.1689C119.452 58.1689 119.771 58.2721 120.033 58.4786C120.306 58.685 120.503 59.0039 120.643 59.4261C120.822 59.0321 121.056 58.7225 121.347 58.5067C121.638 58.2815 121.985 58.1783 122.388 58.1783C122.97 58.1783 123.42 58.4129 123.749 58.8914C124.077 59.3698 124.246 60.0923 124.246 61.0586V65.0929H122.97V61.0492C122.97 60.355 122.886 59.8671 122.717 59.5856C122.548 59.3042 122.294 59.1634 121.957 59.1634C121.666 59.1634 121.422 59.276 121.234 59.4918C121.037 59.7076 120.897 60.0078 120.812 60.3643C120.812 60.3268 120.812 60.3831 120.822 60.5238C120.831 60.6646 120.831 60.7678 120.831 60.8241V65.0741H119.564V61.0305C119.564 60.355 119.48 59.8765 119.302 59.5856C119.123 59.2948 118.87 59.1541 118.532 59.1541C118.26 59.1541 118.035 59.2291 117.847 59.3792C117.66 59.5293 117.51 59.7357 117.406 59.9984V65.0835H116.14V58.2909H117.313V58.3003Z" fill="white"/>
<path d="M128.28 56.5175H127.004V55.2979H128.28V56.5175ZM128.28 65.0833H127.004V58.2907H128.28V65.0833Z" fill="white"/>
<path d="M134.191 63.3853C134.191 63.1226 134.106 62.8975 133.928 62.7192C133.75 62.541 133.431 62.3346 132.943 62.1188C132.249 61.8467 131.723 61.5559 131.386 61.2462C131.048 60.9366 130.879 60.5426 130.879 60.0547C130.879 59.5293 131.085 59.0884 131.498 58.7225C131.911 58.3566 132.455 58.1689 133.121 58.1689C133.816 58.1689 134.379 58.366 134.791 58.76C135.204 59.1541 135.401 59.6513 135.392 60.233L135.382 60.2705H134.163C134.163 59.9515 134.069 59.6701 133.891 59.4355C133.712 59.201 133.459 59.0884 133.131 59.0884C132.812 59.0884 132.568 59.1822 132.39 59.3605C132.211 59.5387 132.127 59.7545 132.127 59.9984C132.127 60.2611 132.202 60.4582 132.352 60.6176C132.502 60.7678 132.831 60.9648 133.337 61.2087C134.05 61.462 134.576 61.7529 134.923 62.0812C135.27 62.4096 135.439 62.8224 135.439 63.3291C135.439 63.892 135.223 64.3423 134.801 64.6988C134.379 65.046 133.816 65.2242 133.121 65.2242C132.371 65.2242 131.78 65.0084 131.348 64.5862C130.917 64.1641 130.71 63.6668 130.729 63.0945L130.738 63.057H131.92C131.939 63.4979 132.061 63.8169 132.286 64.0046C132.512 64.2016 132.793 64.2954 133.131 64.2954C133.459 64.2954 133.722 64.211 133.909 64.0421C134.097 63.8732 134.191 63.6574 134.191 63.3853Z" fill="white"/>
<path d="M140.28 65.2148C139.473 65.2148 138.826 64.9334 138.338 64.3705C137.85 63.8075 137.606 63.0945 137.606 62.222V61.2275C137.606 60.3362 137.841 59.6044 138.319 59.0321C138.797 58.4504 139.398 58.1689 140.13 58.1689C140.899 58.1689 141.49 58.4316 141.903 58.957C142.316 59.4824 142.522 60.1861 142.522 61.0774V61.9593H138.873V62.2314C138.873 62.813 139.004 63.3009 139.257 63.6856C139.511 64.0702 139.876 64.2579 140.355 64.2579C140.702 64.2579 141.012 64.2016 141.256 64.089C141.509 63.9764 141.743 63.8169 141.969 63.6011L142.372 64.3892C142.156 64.6332 141.875 64.8302 141.509 64.9897C141.162 65.1398 140.749 65.2148 140.28 65.2148ZM140.139 59.1353C139.773 59.1353 139.473 59.3135 139.257 59.6794C139.032 60.036 138.91 60.4957 138.891 61.0492H141.284V60.7865C141.284 60.2987 141.19 59.9046 140.993 59.595C140.796 59.2948 140.505 59.1353 140.139 59.1353Z" fill="white"/>
<path d="M148.029 63.3853C148.029 63.1226 147.945 62.8975 147.767 62.7192C147.588 62.541 147.269 62.3346 146.781 62.1188C146.087 61.8467 145.562 61.5559 145.224 61.2462C144.886 60.9366 144.717 60.5426 144.717 60.0547C144.717 59.5293 144.924 59.0884 145.337 58.7225C145.749 58.3566 146.294 58.1689 146.96 58.1689C147.654 58.1689 148.217 58.366 148.63 58.76C149.043 59.1541 149.24 59.6513 149.23 60.233L149.221 60.2705H148.001C148.001 59.9515 147.907 59.6701 147.729 59.4355C147.551 59.201 147.298 59.0884 146.969 59.0884C146.65 59.0884 146.406 59.1822 146.228 59.3605C146.05 59.5387 145.965 59.7545 145.965 59.9984C145.965 60.2611 146.04 60.4582 146.19 60.6176C146.341 60.7678 146.669 60.9648 147.176 61.2087C147.889 61.462 148.414 61.7529 148.761 62.0812C149.108 62.4096 149.277 62.8224 149.277 63.3291C149.277 63.892 149.061 64.3423 148.639 64.6988C148.217 65.046 147.654 65.2242 146.96 65.2242C146.209 65.2242 145.618 65.0084 145.187 64.5862C144.755 64.1641 144.549 63.6668 144.567 63.0945L144.577 63.057H145.759C145.778 63.4979 145.9 63.8169 146.125 64.0046C146.35 64.2016 146.631 64.2954 146.969 64.2954C147.298 64.2954 147.56 64.211 147.748 64.0421C147.945 63.8732 148.029 63.6574 148.029 63.3853Z" fill="white"/>
<path d="M146.894 23.9412H144.965V13.0973H134.365V23.9412H132.419V0.34082H134.365V11.4116H144.965V0.34082H146.894V23.9412Z" fill="white"/>
<path d="M128.092 17.0843L128.14 17.1816C128.119 19.4833 127.513 21.2446 126.325 22.4657C125.136 23.676 123.499 24.2811 121.413 24.2811C119.241 24.2811 117.518 23.5139 116.243 21.9795C114.968 20.445 114.33 18.2568 114.33 15.4148V8.88255C114.33 6.06218 114.968 3.87936 116.243 2.3341C117.529 0.778034 119.252 0 121.413 0C123.521 0 125.163 0.594331 126.341 1.78299C127.519 2.97166 128.119 4.74385 128.14 7.09956L128.092 7.19681H126.292C126.238 5.32737 125.806 3.9496 124.996 3.06351C124.185 2.16661 122.991 1.71816 121.413 1.71816C119.793 1.71816 118.528 2.3287 117.621 3.54978C116.713 4.77086 116.259 6.53224 116.259 8.83393V15.4148C116.259 17.7597 116.713 19.5427 117.621 20.7638C118.528 21.9849 119.793 22.5954 121.413 22.5954C122.991 22.5954 124.185 22.1632 124.996 21.2987C125.806 20.4234 126.238 19.0186 126.292 17.0843H128.092Z" fill="white"/>
<path d="M110.181 12.5462H100.909V22.2554H111.559V23.9412H98.9641V0.34082H111.461V2.05898H100.909V10.8605H110.181V12.5462Z" fill="white"/>
<path d="M95.5925 2.05898H88.9954V23.9412H87.0504V2.05898H80.4695V0.34082H95.5925V2.05898Z" fill="white"/>
</svg>
