<svg width="41" height="41" viewBox="0 0 41 41" fill="none" xmlns="http://www.w3.org/2000/svg">
<g clip-path="url(#clip0_50_1267)">
<g clip-path="url(#clip1_50_1267)">
<g clip-path="url(#clip2_50_1267)">
<path d="M20.0998 0.69043C22.2274 0.69043 24.2928 1.10779 26.2386 1.93097C28.1166 2.72543 29.8026 3.86215 31.2499 5.3096C32.697 6.75697 33.8335 8.44316 34.6278 10.3213C35.4507 12.2672 35.868 14.3326 35.868 16.4601C35.868 19.606 34.1301 23.815 30.555 29.3274C27.8684 33.47 24.8117 37.3009 23.2287 39.2158C22.4539 40.153 21.3133 40.6904 20.0992 40.6904C18.8836 40.6904 17.7425 40.1519 16.9684 39.2129C15.389 37.3032 12.3331 33.4746 9.6433 29.3275C6.06805 23.8152 4.33008 19.6062 4.33008 16.4601C4.33008 14.3325 4.74744 12.2671 5.57059 10.3211C6.36502 8.44299 7.50172 6.75683 8.94911 5.30943C10.3965 3.86207 12.0827 2.72537 13.9608 1.93094C15.9068 1.10779 17.9722 0.69043 20.0998 0.69043ZM20.0998 3.47181C12.927 3.47181 7.11146 9.28736 7.11146 16.4601C7.11146 22.4224 16.0848 33.7803 19.1146 37.4437C19.626 38.0641 20.572 38.0642 21.085 37.4437C24.1134 33.7803 33.0866 22.4224 33.0866 16.4601C33.0866 9.28736 27.2725 3.47181 20.0998 3.47181ZM20.0866 9.21073L20.3427 9.21192C23.2388 9.27496 25.8428 11.0269 26.9852 13.7066C28.1623 16.4675 27.5545 19.666 25.4468 21.8027C23.3391 23.9394 20.1493 24.5909 17.3725 23.4517C14.5958 22.3126 12.7826 19.6086 12.7827 16.6167C12.7555 12.5545 16.0259 9.23908 20.0866 9.21073ZM20.1169 11.992L20.1074 11.9921C17.5811 12.0097 15.5471 14.0716 15.5641 16.6074C15.564 18.4803 16.6955 20.1676 18.4282 20.8785C20.1609 21.5893 22.1514 21.1828 23.4666 19.8494C24.7819 18.5161 25.1611 16.5202 24.4267 14.7974C23.6922 13.0746 21.9895 11.9663 20.1169 11.992Z" fill="#FFD800"/>
</g>
</g>
</g>
<defs>
<clipPath id="clip0_50_1267">
<rect width="40" height="40" fill="white" transform="translate(0.330078 0.69043)"/>
</clipPath>
<clipPath id="clip1_50_1267">
<rect width="40" height="40" fill="white" transform="translate(0.330078 0.69043)"/>
</clipPath>
<clipPath id="clip2_50_1267">
<rect width="40" height="40" fill="white" transform="translate(0.330078 0.69043)"/>
</clipPath>
</defs>
</svg>
