<svg width="17" height="17" viewBox="0 0 17 17" fill="none" xmlns="http://www.w3.org/2000/svg">
<path d="M10.6401 10.9795C10.6401 11.2557 10.4164 11.4795 10.1401 11.4795H7.14014C6.86389 11.4795 6.64014 11.2557 6.64014 10.9795V9.47949H0.640137V13.9795C0.640137 14.7795 1.34014 15.4795 2.14014 15.4795H15.1401C15.9401 15.4795 16.6401 14.7795 16.6401 13.9795V9.47949H10.6401V10.9795ZM15.1401 4.47949H12.6401V2.97949C12.6401 2.17949 11.9401 1.47949 11.1401 1.47949H6.14014C5.34014 1.47949 4.64014 2.17949 4.64014 2.97949V4.47949H2.14014C1.34014 4.47949 0.640137 5.17949 0.640137 5.97949V8.47949H16.6401V5.97949C16.6401 5.17949 15.9401 4.47949 15.1401 4.47949ZM10.6401 4.47949H6.64014V3.47949H10.6401V4.47949Z" fill="#2F2207"/>
</svg>
