<svg width="38" height="39" viewBox="0 0 38 39" fill="none" xmlns="http://www.w3.org/2000/svg">
<rect x="1" y="1.45996" width="36.5" height="36.5" rx="18.25" stroke="#DADEE4" stroke-opacity="0.5"/>
<path d="M23 12.21H15.5C13.4 12.21 11.75 13.86 11.75 15.96V23.46C11.75 25.56 13.4 27.21 15.5 27.21H23C25.1 27.21 26.75 25.56 26.75 23.46V15.96C26.75 13.86 25.1 12.21 23 12.21ZM22.625 20.385L17.525 23.235C17.45 23.31 17.3 23.31 17.15 23.31C16.775 23.31 16.4 23.01 16.4 22.56V16.86C16.4 16.485 16.7 16.11 17.15 16.11C17.3 16.11 17.375 16.11 17.525 16.185L22.625 19.035C23 19.26 23.15 19.635 22.925 20.01C22.85 20.16 22.7 20.31 22.625 20.385Z" fill="#5A5A5A"/>
</svg>
