<svg width="38" height="39" viewBox="0 0 38 39" fill="none" xmlns="http://www.w3.org/2000/svg">
<rect x="0.5" y="1.45996" width="36.5" height="36.5" rx="18.25" stroke="#DADEE4" stroke-opacity="0.5"/>
<path d="M26.25 19.7849C26.25 15.6599 22.875 12.2849 18.75 12.2849C14.625 12.2849 11.25 15.5849 11.25 19.7849C11.25 23.5349 14.025 26.6099 17.55 27.2099V21.9599H15.675V19.7849H17.55V18.1349C17.55 16.2599 18.675 15.2099 20.4 15.2099C21.225 15.2099 22.05 15.3599 22.05 15.3599V17.2349H21.075C20.175 17.2349 19.875 17.8349 19.875 18.4349V19.8599H21.975L21.675 21.9599H19.95V27.2099C23.475 26.6099 26.25 23.5349 26.25 19.7849Z" fill="#5A5A5A"/>
</svg>
