<svg width="38" height="39" viewBox="0 0 38 39" fill="none" xmlns="http://www.w3.org/2000/svg">
<rect x="1" y="1.45996" width="36.5" height="36.5" rx="18.25" stroke="#DADEE4" stroke-opacity="0.5"/>
<path d="M13.925 12.21C12.725 12.21 11.75 13.185 11.75 14.385V25.11C11.75 26.235 12.725 27.21 13.925 27.21H24.65C25.85 27.21 26.825 26.235 26.825 25.035V14.385C26.75 13.185 25.775 12.21 24.575 12.21H13.925ZM23.825 15.06L20.375 18.96L24.5 24.36H21.275L18.8 21.06L15.95 24.36H14.3L18.05 20.085L14.075 15.06H17.375L19.625 18.06L22.25 15.06H23.825ZM22.55 23.46L16.85 15.96H15.95L21.725 23.46H22.55Z" fill="#5A5A5A"/>
</svg>
