<svg width="101" height="101" viewBox="0 0 101 101" fill="none" xmlns="http://www.w3.org/2000/svg">
<rect x="30.3301" y="20.8701" width="40" height="40" rx="20" fill="white"/>
<g filter="url(#filter0_d_50_256)">
<rect x="30.3301" y="20.8701" width="40" height="40" rx="20" fill="white" fill-opacity="0.01" shape-rendering="crispEdges"/>
</g>
<path d="M50.3332 37.2765C48.3457 37.2765 46.7426 38.8796 46.7426 40.8671C46.7426 42.8546 48.3457 44.4577 50.3332 44.4577C52.3207 44.4577 53.9239 42.8546 53.9239 40.8671C53.9239 38.8796 52.3207 37.2765 50.3332 37.2765ZM50.3332 43.2015C49.0489 43.2015 47.9989 42.1546 47.9989 40.8671C47.9989 39.5796 49.0457 38.5327 50.3332 38.5327C51.6207 38.5327 52.6676 39.5796 52.6676 40.8671C52.6676 42.1546 51.6176 43.2015 50.3332 43.2015ZM54.9082 37.1296C54.9082 37.5952 54.5332 37.9671 54.0707 37.9671C53.6051 37.9671 53.2332 37.5921 53.2332 37.1296C53.2332 36.6671 53.6082 36.2921 54.0707 36.2921C54.5332 36.2921 54.9082 36.6671 54.9082 37.1296ZM57.2864 37.9796C57.2332 36.8577 56.977 35.864 56.1551 35.0452C55.3364 34.2265 54.3426 33.9702 53.2207 33.914C52.0645 33.8483 48.5989 33.8483 47.4426 33.914C46.3239 33.9671 45.3301 34.2233 44.5082 35.0421C43.6864 35.8608 43.4332 36.8546 43.377 37.9765C43.3114 39.1327 43.3114 42.5983 43.377 43.7546C43.4301 44.8765 43.6864 45.8702 44.5082 46.689C45.3301 47.5077 46.3207 47.764 47.4426 47.8202C48.5989 47.8858 52.0645 47.8858 53.2207 47.8202C54.3426 47.7671 55.3364 47.5108 56.1551 46.689C56.9739 45.8702 57.2301 44.8765 57.2864 43.7546C57.352 42.5983 57.352 39.1358 57.2864 37.9796ZM55.7926 44.9952C55.5489 45.6077 55.077 46.0796 54.4614 46.3265C53.5395 46.6921 51.352 46.6077 50.3332 46.6077C49.3145 46.6077 47.1239 46.689 46.2051 46.3265C45.5926 46.0827 45.1207 45.6108 44.8739 44.9952C44.5082 44.0733 44.5926 41.8858 44.5926 40.8671C44.5926 39.8483 44.5114 37.6577 44.8739 36.739C45.1176 36.1265 45.5895 35.6546 46.2051 35.4077C47.127 35.0421 49.3145 35.1265 50.3332 35.1265C51.352 35.1265 53.5426 35.0452 54.4614 35.4077C55.0739 35.6515 55.5457 36.1233 55.7926 36.739C56.1582 37.6608 56.0739 39.8483 56.0739 40.8671C56.0739 41.8858 56.1582 44.0765 55.7926 44.9952Z" fill="black"/>
<defs>
<filter id="filter0_d_50_256" x="0.330078" y="0.870117" width="100" height="100" filterUnits="userSpaceOnUse" color-interpolation-filters="sRGB">
<feFlood flood-opacity="0" result="BackgroundImageFix"/>
<feColorMatrix in="SourceAlpha" type="matrix" values="0 0 0 0 0 0 0 0 0 0 0 0 0 0 0 0 0 0 127 0" result="hardAlpha"/>
<feOffset dy="10"/>
<feGaussianBlur stdDeviation="15"/>
<feComposite in2="hardAlpha" operator="out"/>
<feColorMatrix type="matrix" values="0 0 0 0 0 0 0 0 0 0 0 0 0 0 0 0 0 0 0.07 0"/>
<feBlend mode="normal" in2="BackgroundImageFix" result="effect1_dropShadow_50_256"/>
<feBlend mode="normal" in="SourceGraphic" in2="effect1_dropShadow_50_256" result="shape"/>
</filter>
</defs>
</svg>
