<svg width="149" height="150" viewBox="0 0 149 150" fill="none" xmlns="http://www.w3.org/2000/svg">
<mask id="mask0_323_2459" style="mask-type:luminance" maskUnits="userSpaceOnUse" x="0" y="0" width="149" height="150">
<path d="M0.158936 0.228012H149V149.991H0.158936V0.228012Z" fill="white"/>
</mask>
<g mask="url(#mask0_323_2459)">
<path d="M130.376 74.3815C130.376 104.248 106.165 128.459 76.2989 128.459C46.4328 128.459 22.2214 104.248 22.2214 74.3815C22.2214 44.5154 46.4328 20.304 76.2989 20.304C106.165 20.304 130.376 44.5154 130.376 74.3815Z" fill="white"/>
<path d="M130.376 74.3815C130.376 104.248 106.165 128.459 76.2989 128.459C46.4328 128.459 22.2214 104.248 22.2214 74.3815C22.2214 44.5154 46.4328 20.304 76.2989 20.304C106.165 20.304 130.376 44.5154 130.376 74.3815Z" stroke="#006BB6" stroke-width="4" stroke-miterlimit="10"/>
<path d="M113.315 74.3814C113.315 94.825 96.7423 111.398 76.2987 111.398C55.8552 111.398 39.2825 94.825 39.2825 74.3814C39.2825 53.9379 55.8552 37.3652 76.2987 37.3652C96.7423 37.3652 113.315 53.9379 113.315 74.3814Z" fill="#006BB6"/>
<path d="M48.7191 42.2008L49.7075 43.1998C50.8978 44.4032 50.8529 45.8082 49.4545 47.1918C48.0562 48.5753 46.6508 48.6053 45.4605 47.4019L41.592 43.4913C40.4015 42.2878 40.4464 40.8826 41.845 39.499C43.2433 38.1157 44.6485 38.0857 45.839 39.2889L46.5616 40.0195L45.2151 41.3519L44.4179 40.5462C43.8866 40.0089 43.3998 40.0868 42.9465 40.5352C42.4933 40.9835 42.4104 41.4695 42.9419 42.0068L46.9593 46.0679C47.4906 46.6052 47.9668 46.5165 48.42 46.0683C48.873 45.62 48.9668 45.1446 48.4352 44.6073L47.3726 43.533L48.7191 42.2008Z" fill="#006BB6"/>
<path d="M52.3673 36.9135L54.7043 35.4631L55.501 36.7469L53.164 38.1973L54.7971 40.8295L57.7375 39.0044L58.5343 40.2883L53.8914 43.1699L48.3149 34.1823L52.9578 31.3011L53.7543 32.5849L50.8139 34.4097L52.3673 36.9135Z" fill="#006BB6"/>
<path d="M60.245 29.7659L61.2843 32.8436L62.0262 32.5932C62.734 32.354 63.0785 31.9506 62.8077 31.149L62.4741 30.1613C62.2324 29.4454 61.8327 29.2297 61.1597 29.4569L60.245 29.7659ZM65.2164 37.6559C65.0258 37.4333 64.9037 37.299 64.6279 36.4831L64.0964 34.9083C63.7821 33.9777 63.2865 33.7625 62.4234 34.0537L61.7677 34.2754L63.1453 38.3554L61.247 38.9966L57.863 28.9754L60.7281 28.0079C62.6955 27.3432 63.7973 27.8165 64.3194 29.3627L64.5853 30.15C64.9334 31.1808 64.7588 31.9734 64.0243 32.5881L64.034 32.6169C65.0943 32.6254 65.6565 33.265 66.0092 34.3102L66.5313 35.8564C66.6958 36.343 66.8338 36.6951 67.1492 37.0031L65.2164 37.6559Z" fill="#006BB6"/>
<path d="M68.3662 26.0151L74.5293 25.4077L74.6777 26.9118L72.5932 27.1171L73.4833 36.1414L71.4893 36.3379L70.5991 27.3137L68.5146 27.5189L68.3662 26.0151Z" fill="#006BB6"/>
<path d="M79.4737 25.5657L81.4704 25.7346L80.5794 36.2749L78.5828 36.106L79.4737 25.5657Z" fill="#006BB6"/>
<path d="M87.6297 31.6383L90.1243 32.3223L89.7246 33.7794L87.23 33.0956L86.0747 37.3071L84.1423 36.7772L86.9404 26.5763L92.0528 27.9781L91.6528 29.4351L88.4732 28.5635L87.6297 31.6383Z" fill="#006BB6"/>
<path d="M96.711 29.9143L98.5139 30.7887L93.8996 40.3076L92.0967 39.4332L96.711 29.9143Z" fill="#006BB6"/>
<path d="M102.279 38.3051L104.487 39.9451L103.586 41.1585L101.378 39.5187L99.5311 42.0059L102.309 44.0691L101.408 45.2822L97.0217 42.0245L103.329 33.5314L107.716 36.7895L106.815 38.0028L104.036 35.9393L102.279 38.3051Z" fill="#006BB6"/>
<path d="M111.831 42.9968L106.067 47.8837L106.797 48.7449C107.209 49.2313 107.664 49.3472 108.241 48.8585L112.437 45.3008C113.013 44.8121 112.973 44.3447 112.561 43.858L111.831 42.9968ZM111.688 40.4911L113.738 42.9085C115.033 44.437 114.966 45.7835 113.675 46.8782L109.594 50.3379C108.303 51.4326 106.964 51.2784 105.668 49.7502L103.618 47.3325L111.688 40.4911Z" fill="#006BB6"/>
<path d="M45.3249 109.404L44.2051 110.37C42.8563 111.533 41.3848 111.385 40.0332 109.817C38.6814 108.25 38.7512 106.773 40.0998 105.61L44.4828 101.831C45.8316 100.668 47.3029 100.816 48.6547 102.384C50.0065 103.951 49.9367 105.428 48.5881 106.591L47.7693 107.297L46.4675 105.788L47.3707 105.009C47.9727 104.49 47.9262 103.973 47.4882 103.466C47.0502 102.958 46.546 102.835 45.944 103.355L41.3924 107.279C40.7903 107.798 40.8488 108.304 41.2868 108.812C41.7248 109.32 42.217 109.452 42.8192 108.933L44.0233 107.895L45.3249 109.404Z" fill="#006BB6"/>
<path d="M50.3897 115.597C49.9496 116.259 50.1337 116.744 50.692 117.115C51.2507 117.487 51.7689 117.468 52.209 116.806L55.5353 111.802C55.9752 111.14 55.7913 110.655 55.2328 110.284C54.6743 109.912 54.1561 109.931 53.716 110.592L50.3897 115.597ZM51.8991 109.518C52.8847 108.036 54.3893 107.814 56.1127 108.959C57.8361 110.105 58.2144 111.578 57.229 113.061L54.0259 117.881C53.0403 119.364 51.5355 119.585 49.8121 118.44C48.0886 117.294 47.7103 115.821 48.696 114.338L51.8991 109.518Z" fill="#006BB6"/>
<path d="M64.3871 121.458L64.424 121.469L67.9029 114.235L70.7281 115.019L67.7527 125.742L65.8322 125.209L67.966 117.519L67.9291 117.509L64.4291 124.819L62.5087 124.286L63.1356 116.294L63.0987 116.283L60.9947 123.866L59.2222 123.374L62.1974 112.651L65.0224 113.435L64.3871 121.458Z" fill="#006BB6"/>
<path d="M77.0132 116.756L77.1531 120.522L78.1489 120.485C78.8191 120.459 79.1735 120.192 79.1442 119.397L79.082 117.729C79.0525 116.935 78.6793 116.694 78.009 116.719L77.0132 116.756ZM81.1928 117.762L81.2464 119.208C81.3126 120.987 80.3145 121.995 78.2081 122.073L77.2123 122.11L77.3676 126.289L75.2612 126.367L74.8477 115.246L77.9498 115.13C80.0564 115.052 81.1266 115.983 81.1928 117.762Z" fill="#006BB6"/>
<path d="M88.5532 121.061L90.4904 120.45L87.8474 115.382L87.8108 115.393L88.5532 121.061ZM94.2015 122.98L92.173 123.62L91.2187 121.804L88.7515 122.582L89.0117 124.617L87.1659 125.2L85.8657 113.94L88.8078 113.011L94.2015 122.98Z" fill="#006BB6"/>
<path d="M97.3461 112.235L97.3143 112.257L101.829 118.934L100.258 119.997L94.0242 110.778L96.2146 109.296L101.708 113.623L101.74 113.602L98.0085 108.083L99.564 107.032L105.798 116.25L104.004 117.463L97.3461 112.235Z" fill="#006BB6"/>
<path d="M109.55 107.488L102.125 104.782L103.534 103.087L108.451 105.105L108.475 105.075L105.591 100.611L106.878 99.0639L110.898 105.867L113.734 108.224L112.387 109.846L109.55 107.488Z" fill="#006BB6"/>
<path d="M94.4822 72.401C94.3527 73.0074 93.9435 73.6374 93.3 73.865C92.2742 74.3164 90.8881 74.1915 89.9382 73.6639C89.1423 73.107 89.0398 72.1755 88.937 71.2925C88.8589 69.5537 88.7336 67.7118 89.2209 66.1204C89.6029 65.1352 90.6559 64.8825 91.6077 64.8085C92.609 64.8085 93.5818 64.9606 94.2004 65.7675C94.5852 66.3465 94.5605 67.1043 94.6366 67.7858C94.6096 69.2231 94.7391 70.937 94.4822 72.401ZM100.542 65.2133C100.079 63.9996 99.129 62.9155 97.9733 62.1356C94.6366 60.0168 89.5515 59.8647 86.1139 61.7801C84.2389 62.737 83.0071 64.6297 82.6228 66.5766C81.9277 69.7772 82.1067 73.5855 84.572 75.9843C87.4486 78.5051 91.6325 79.062 95.354 78.0268C95.5303 77.9932 96.0911 77.8526 96.4779 77.6469L96.5878 77.5999C97.7429 77.1195 98.8451 76.3372 99.6674 75.2776C101.567 72.5019 101.697 68.3399 100.542 65.2133Z" fill="white"/>
<path d="M64.0605 73.9683C63.2135 73.9167 62.2636 73.9907 61.4433 73.8902L61.4677 65.0346L61.5193 64.9607L64.0605 64.936C64.0874 63.4992 64.1119 61.9569 64.0337 60.647L54.3579 60.6201L52.7645 60.647C52.7398 61.9836 52.7398 63.546 52.7645 64.9093C53.6384 64.936 54.4586 64.9093 55.3056 64.9874V73.5637L55.2812 73.9167L52.7398 73.9683C52.6863 75.3782 52.6863 76.7417 52.7398 78.1299H64.0605V73.9683Z" fill="white"/>
<path d="M83.0071 87.2866L81.8004 87.6646C81.5945 87.5642 81.4157 87.4119 81.2348 87.2596L81.2862 87.1838C82.9292 86.2269 84.4176 85.065 85.83 83.677C86.523 83.954 87.1912 84.3342 87.8082 84.7609C86.3714 85.9009 84.7015 86.6543 83.0071 87.2866ZM80.5422 87.9907C77.8223 88.5738 74.7909 88.5969 72.0709 87.9416C72.0196 87.8165 72.1981 87.79 72.2765 87.716C74.6637 86.1762 78.3852 86.1762 80.7231 87.8386C80.7991 87.9907 80.5931 87.9416 80.5422 87.9907ZM71.0185 87.6646C68.8612 87.1078 66.8587 86.1491 65.0104 84.839V84.7609C65.6272 84.3855 66.2442 83.9812 66.9101 83.7012C68.3741 85.1436 69.8874 86.2269 71.5323 87.2596C71.4025 87.4119 71.197 87.5642 71.0185 87.6646ZM67.7059 83.351C68.7096 82.8702 69.76 82.5149 70.8371 82.24L70.9422 82.2665C71.6843 83.6545 72.6094 84.9648 73.5329 86.2765C73.175 86.4797 72.737 86.6023 72.3794 86.8062C70.6851 85.9744 69.0669 84.8125 67.7059 83.4248V83.351ZM71.8408 81.9873C73.175 81.7352 74.5609 81.5334 75.9979 81.5334L76.0247 85.8007C75.4839 85.9235 74.8939 85.9235 74.3798 86.053C73.3269 84.8125 72.4555 83.4757 71.711 82.0877L71.8408 81.9873ZM76.7935 81.5334C78.258 81.5603 79.722 81.7124 81.0809 82.0389L81.1074 82.1147C80.3899 83.4757 79.4895 84.7901 78.5147 86.0242C78.0769 86.0751 77.6677 85.9009 77.2318 85.8746L76.7935 85.8226C76.7424 84.3342 76.7152 83.0225 76.7935 81.5334ZM81.8518 82.2914L81.9276 82.24C83.034 82.4921 84.0849 82.8457 85.0611 83.3241C84.2388 84.2556 83.1859 85.065 82.2117 85.7447C81.6217 86.0977 81.0295 86.4797 80.4123 86.7792L79.3107 86.3009L79.3865 86.1267C80.312 84.891 81.1343 83.6275 81.8518 82.2914ZM92.5553 80.0205C91.4783 81.5603 90.1171 83.049 88.6308 84.2067C88.5771 84.2849 88.4227 84.2556 88.3739 84.1823C87.7299 83.7798 87.0373 83.4512 86.4201 83.049C87.2426 82.0658 88.0386 81.082 88.6552 79.9936H87.8578C87.2182 80.9304 86.5502 81.9135 85.7028 82.7448C84.572 82.2914 83.5462 81.8868 82.3905 81.5829L82.2631 81.4866C82.4419 80.9772 82.7746 80.4988 82.8776 79.9936H82.1845L81.4922 81.3569C79.9786 81.0288 78.3094 80.8518 76.7691 80.7516C76.6908 80.5258 76.7935 80.1973 76.6908 79.9936H76.0247C75.971 80.2977 76.1007 80.5258 75.9466 80.7786C74.3552 80.8518 72.8154 81.0288 71.3267 81.335L70.6316 79.9936C70.3768 79.9936 70.0929 79.9447 69.9141 80.0205L70.5556 81.5092L70.4795 81.5829C69.3218 81.9135 68.1953 82.3186 67.0912 82.7697L66.9885 82.7183C66.2687 81.9359 65.5758 81.082 65.0104 80.224C64.8828 79.7929 64.3688 80.045 64.0874 79.9936C64.7019 81.1046 65.5245 82.0877 66.3449 83.0983C65.6516 83.5029 64.9611 83.954 64.2393 84.2849C62.6992 83.1229 61.2643 81.6094 60.1848 80.0205C59.8763 79.9717 59.6731 79.9936 59.3623 80.0205C61.2108 82.8971 64.0874 85.4182 67.0912 86.9071C67.0912 86.9071 67.0912 86.8843 67.1182 86.8843C67.1405 86.8843 67.1917 86.931 67.1405 86.958C69.1699 87.9416 71.3267 88.6476 73.6107 88.9519C81.4922 89.9848 89.0149 86.6315 93.378 80.0205C93.1502 79.9936 92.8128 79.9936 92.5553 80.0205Z" fill="white"/>
<path d="M64.9075 53.9865C66.5257 52.8019 68.3228 51.9188 70.2227 51.3131C70.3006 51.235 70.3501 51.1612 70.4527 51.1612V51.2126C70.6582 51.2617 70.8128 51.0338 70.9914 51.1838C71.1457 51.3131 71.3266 51.4138 71.454 51.5391C69.8626 52.5202 68.2961 53.6825 66.8586 55.0929C66.166 54.8447 65.5243 54.4648 64.9075 54.0355V53.9865ZM80.5688 50.8573V50.9087C78.3336 52.5202 74.7149 52.6722 72.3547 51.1838C72.2229 51.0831 71.9683 51.0338 71.9413 50.8573C74.6635 50.229 77.871 50.1779 80.5688 50.8573ZM81.5946 51.1101C83.7516 51.6665 85.7785 52.6231 87.6272 53.9348L87.5759 54.0355L85.8057 55.0189H85.6762C84.3172 53.66 82.7258 52.4752 81.1075 51.5391C81.1589 51.3624 81.4155 51.235 81.5946 51.1101ZM84.8824 55.4235C83.879 55.8507 82.8512 56.255 81.7489 56.4854C80.9536 55.1488 80.0817 53.812 79.1027 52.5202C79.4624 52.3236 79.9006 52.1716 80.2849 51.9704C81.957 52.8019 83.5728 53.9865 84.9317 55.3451L84.8824 55.4235ZM76.6909 57.1916C76.6395 55.8507 76.6662 54.3643 76.6909 52.9759C77.2049 52.9024 77.768 52.8243 78.2823 52.7506C79.2836 54.0088 80.2605 55.3004 80.9287 56.6817C79.541 57.0128 78.1279 57.1916 76.6909 57.1916ZM75.8953 57.1646C75.1778 57.2651 74.5364 57.1421 73.8143 57.0863C73.1238 56.9861 72.2498 56.9121 71.557 56.6817C72.3012 55.3004 73.1751 53.9618 74.2281 52.728L75.8706 52.9517C75.9467 54.2611 75.8953 55.7769 75.8953 57.1646ZM70.7879 56.4854L70.6852 56.5075C69.6327 56.2327 68.6041 55.9018 67.63 55.4749L67.6791 55.3228C69.0917 53.9865 70.5801 52.8754 72.2229 52.0195C72.6095 52.1716 72.994 52.2964 73.3786 52.4752L73.3025 52.6722C72.3256 53.8858 71.557 55.1956 70.7879 56.4854ZM60.1333 58.7026C60.7504 57.8441 61.4432 57.0128 62.2123 56.2059C62.8781 55.5753 63.4949 54.97 64.2149 54.5138C64.8829 54.9431 65.6273 55.3004 66.2685 55.703C65.4729 56.6817 64.6529 57.6699 64.0603 58.727C64.2394 58.8051 64.5746 58.7807 64.8317 58.727C65.4729 57.7948 66.166 56.8607 66.9883 56.0292C68.0903 56.4338 69.17 56.8607 70.3006 57.1646L70.4013 57.2651L69.7601 58.727C70.0437 58.7807 70.2227 58.7537 70.5043 58.727C70.7347 58.3001 70.913 57.8218 71.1702 57.3904C72.6609 57.7211 74.2281 57.8955 75.8192 57.9448C76.0245 58.1236 75.8706 58.5012 75.9467 58.727H76.6395C76.7153 58.4789 76.6148 58.1973 76.7153 57.9738C78.2065 57.8955 79.7707 57.7437 81.2125 57.3904L81.3377 57.4174L82.0307 58.727C82.2632 58.727 82.5694 58.7807 82.7503 58.6759L82.1065 57.2163L82.1602 57.1646C83.3383 56.8607 84.4447 56.4071 85.5732 55.9557C86.3713 56.7868 87.1132 57.7706 87.7839 58.727C88.0652 58.727 88.3468 58.7537 88.5528 58.6759C88.244 58.1236 87.8576 57.5692 87.4487 57.0863C87.1132 56.608 86.7556 56.1811 86.3172 55.7276V55.5979L88.1145 54.5655L88.374 54.4648C89.9382 55.6495 91.3238 57.0863 92.4282 58.6759C92.7364 58.6759 92.9936 58.7807 93.2505 58.6533C89.8089 53.5081 84.1359 50.2 78.003 49.7242L77.9761 49.7733L77.9247 49.7242C77.2319 49.6505 76.3824 49.6212 75.6382 49.6949C75.3566 49.6726 75.0234 49.6949 74.6882 49.7242C68.5283 50.2 62.8558 53.3563 59.3108 58.727C59.5679 58.7026 59.8764 58.8051 60.1333 58.7026Z" fill="white"/>
<path d="M75.9222 74.1651C73.5082 74.8222 70.8888 74.3215 69.1432 72.5025C68.9398 72.2497 68.8103 71.9504 68.6043 71.6977L65.1402 71.7226C65.0865 73.7649 65.0619 76.1115 65.1402 78.1303L68.9889 78.1059L69.0402 76.8947C69.4782 77.0951 69.9142 77.3477 70.3501 77.5735C73.0209 78.6845 76.4588 78.9372 79.1029 77.5735C81.0296 76.5166 82.0574 74.4738 81.7735 72.2742C81.4922 70.1328 79.4382 68.1886 77.3594 67.661L71.1459 65.8685L70.6853 65.6406C70.4796 65.4662 70.3501 65.2406 70.4015 64.9611C70.8888 64.1294 72.0198 64.3821 72.8668 64.4047C74.6637 64.6572 76.5122 65.263 77.565 66.9034C78.6937 66.9034 80.0033 66.9258 81.2348 66.8767C81.2865 64.8091 81.2125 62.9944 81.1835 60.9C80.0282 60.8733 78.6156 60.8733 77.4622 60.9268C77.4106 61.2263 77.5113 61.6532 77.3839 61.9574L76.2037 61.3267C73.3785 60.1422 69.4248 60.0174 66.8588 61.859C65.1893 63.0679 64.6773 65.2406 65.1132 67.1557C65.4464 68.9709 67.1917 70.3074 68.8614 70.9376C71.1459 71.7445 73.5329 72.3276 75.8462 73.1075C76.0761 73.2103 76.3825 73.4389 76.3335 73.716C76.3335 73.9395 76.101 74.0695 75.9222 74.1651Z" fill="white"/>
<path d="M56.7994 96.3571V95.0562C56.7994 94.5396 56.5256 94.3539 56.09 94.3539C55.6545 94.3539 55.3805 94.5396 55.3805 95.0562V96.3571C55.3805 96.8734 55.6545 97.0697 56.09 97.0697C56.5256 97.0697 56.7994 96.8734 56.7994 96.3571ZM58.1684 98.8249C58.1684 100.043 57.4963 100.704 56.0775 100.704C54.7333 100.704 54.0364 100.043 54.0364 98.8867V98.701H55.3308V98.9593C55.3308 99.4754 55.6045 99.6717 56.0402 99.6717C56.5256 99.6717 56.7994 99.4754 56.7994 98.7835V97.4722H56.7745C56.5381 97.8853 56.1397 98.1021 55.5298 98.1021C54.5218 98.1021 54.0115 97.5137 54.0115 96.4499V95.1283C54.0115 93.9717 54.7458 93.3109 56.09 93.3109C57.4341 93.3109 58.1684 93.9717 58.1684 95.1283V98.8249Z" fill="white"/>
<path d="M60.3341 98.9593C60.3341 99.4754 60.6079 99.6717 61.0436 99.6717C61.4793 99.6717 61.753 99.4754 61.753 98.9593V95.0562C61.753 94.5396 61.4793 94.3436 61.0436 94.3436C60.6079 94.3436 60.3341 94.5396 60.3341 95.0562V98.9593ZM58.9651 95.1283C58.9651 93.9719 59.6994 93.3109 61.0436 93.3109C62.3877 93.3109 63.122 93.9719 63.122 95.1283V98.8869C63.122 100.043 62.3877 100.704 61.0436 100.704C59.6994 100.704 58.9651 100.043 58.9651 98.8869V95.1283Z" fill="white"/>
<path d="M65.2626 98.9593C65.2626 99.4754 65.5363 99.6717 65.972 99.6717C66.4077 99.6717 66.6814 99.4754 66.6814 98.9593V95.0562C66.6814 94.5396 66.4077 94.3436 65.972 94.3436C65.5363 94.3436 65.2626 94.5396 65.2626 95.0562V98.9593ZM63.8936 95.1283C63.8936 93.9719 64.6279 93.3109 65.972 93.3109C67.3162 93.3109 68.0505 93.9719 68.0505 95.1283V98.8869C68.0505 100.043 67.3162 100.704 65.972 100.704C64.6279 100.704 63.8936 100.043 63.8936 98.8869V95.1283Z" fill="white"/>
<path d="M69.7808 94.3028C70.8385 94.3028 71.0749 93.8793 71.2867 93.3943H72.2076V100.622H70.8385V95.108H69.7808V94.3028Z" fill="white"/>
<path d="M75.1823 100.622H73.863V99.5277H75.1823V100.622ZM75.1823 96.6879H73.863V95.5933H75.1823V96.6879Z" fill="white"/>
<path d="M78.1816 94.344C77.7459 94.344 77.4721 94.5403 77.4721 95.0567V95.831H76.1777V95.1288C76.1777 93.9724 76.8747 93.3116 78.2189 93.3116C79.5631 93.3116 80.26 93.9724 80.26 95.1288C80.26 96.0891 79.8368 96.8637 78.5673 97.989C77.7583 98.7118 77.5344 99.0528 77.5344 99.4348C77.5344 99.4862 77.5344 99.5378 77.5468 99.5896H80.1354V100.622H76.1777V99.7341C76.1777 98.9286 76.5263 98.3194 77.5468 97.4314C78.5921 96.5126 78.891 95.9446 78.891 95.1702C78.891 94.5198 78.617 94.344 78.1816 94.344Z" fill="white"/>
<path d="M82.3634 98.9593C82.3634 99.4754 82.6372 99.6717 83.0729 99.6717C83.5086 99.6717 83.7823 99.4754 83.7823 98.9593V95.0562C83.7823 94.5396 83.5086 94.3436 83.0729 94.3436C82.6372 94.3436 82.3634 94.5396 82.3634 95.0562V98.9593ZM80.9944 95.1283C80.9944 93.9719 81.7287 93.3109 83.0729 93.3109C84.417 93.3109 85.1513 93.9719 85.1513 95.1283V98.8869C85.1513 100.043 84.417 100.704 83.0729 100.704C81.7287 100.704 80.9944 100.043 80.9944 98.8869V95.1283Z" fill="white"/>
<path d="M86.8813 94.3028C87.9394 94.3028 88.1758 93.8793 88.3873 93.3943H89.3082V100.622H87.9394V95.108H86.8813V94.3028Z" fill="white"/>
<path d="M92.1958 98.2881V98.9593C92.1958 99.4754 92.4695 99.6613 92.9052 99.6613C93.3407 99.6613 93.6146 99.4754 93.6146 98.9593V97.369C93.6146 96.8529 93.3407 96.6566 92.9052 96.6566C92.4695 96.6566 92.1958 96.8529 92.1958 97.369V97.5858H90.9014L91.1502 93.3938H94.7595V94.4263H92.37L92.258 96.1506H92.2829C92.5317 95.8099 92.9176 95.6239 93.4653 95.6239C94.4733 95.6239 94.9837 96.2126 94.9837 97.2759V98.8869C94.9837 100.043 94.2867 100.704 92.9425 100.704C91.5983 100.704 90.9014 100.043 90.9014 98.8869V98.2881H92.1958Z" fill="white"/>
</g>
</svg>
