<svg width="113" height="113" viewBox="0 0 113 113" fill="none" xmlns="http://www.w3.org/2000/svg">
<path d="M110.376 56.3815C110.376 86.2477 86.165 110.459 56.2989 110.459C26.4328 110.459 2.22144 86.2477 2.22144 56.3815C2.22144 26.5154 26.4328 2.30405 56.2989 2.30405C86.165 2.30405 110.376 26.5154 110.376 56.3815Z" fill="white"/>
<path d="M110.376 56.3815C110.376 86.2477 86.165 110.459 56.2989 110.459C26.4328 110.459 2.22144 86.2477 2.22144 56.3815C2.22144 26.5154 26.4328 2.30405 56.2989 2.30405C86.165 2.30405 110.376 26.5154 110.376 56.3815Z" stroke="#006BB6" stroke-width="4" stroke-miterlimit="10"/>
<path d="M93.3152 56.3814C93.3152 76.825 76.7423 93.3979 56.2987 93.3979C35.8552 93.3979 19.2825 76.825 19.2825 56.3814C19.2825 35.9379 35.8552 19.3652 56.2987 19.3652C76.7423 19.3652 93.3152 35.9379 93.3152 56.3814Z" fill="#006BB6"/>
<path d="M28.7191 24.2008L29.7075 25.1998C30.8978 26.4032 30.8529 27.8082 29.4545 29.1918C28.0562 30.5753 26.6508 30.6053 25.4605 29.4019L21.592 25.4913C20.4015 24.2878 20.4464 22.8826 21.845 21.499C23.2433 20.1157 24.6485 20.0857 25.839 21.2889L26.5616 22.0195L25.2151 23.3519L24.4179 22.5462C23.8866 22.0089 23.3998 22.0868 22.9465 22.5352C22.4933 22.9835 22.4104 23.4695 22.9419 24.0068L26.9593 28.0679C27.4906 28.6052 27.9668 28.5165 28.42 28.0683C28.873 27.62 28.9668 27.1446 28.4352 26.6073L27.3726 25.533L28.7191 24.2008Z" fill="#006BB6"/>
<path d="M32.3673 18.9135L34.7043 17.4631L35.501 18.7469L33.164 20.1973L34.7971 22.8295L37.7375 21.0044L38.5343 22.2883L33.8914 25.1699L28.3149 16.1823L32.9578 13.3011L33.7543 14.5849L30.8139 16.4097L32.3673 18.9135Z" fill="#006BB6"/>
<path d="M40.245 11.7659L41.2843 14.8436L42.0262 14.5932C42.734 14.354 43.0785 13.9506 42.8077 13.149L42.4741 12.1613C42.2324 11.4454 41.8327 11.2297 41.1597 11.4569L40.245 11.7659ZM45.2164 19.6559C45.0258 19.4333 44.9037 19.299 44.6279 18.4831L44.0964 16.9083C43.7821 15.9777 43.2865 15.7625 42.4234 16.0537L41.7677 16.2754L43.1453 20.3554L41.247 20.9966L37.863 10.9754L40.7281 10.0079C42.6955 9.3432 43.7973 9.81645 44.3194 11.3627L44.5853 12.15C44.9334 13.1808 44.7588 13.9734 44.0243 14.5881L44.034 14.6169C45.0943 14.6254 45.6565 15.265 46.0092 16.3102L46.5313 17.8564C46.6958 18.343 46.8338 18.6951 47.1492 19.0031L45.2164 19.6559Z" fill="#006BB6"/>
<path d="M48.3662 8.01509L54.5293 7.40775L54.6777 8.91183L52.5932 9.11712L53.4833 18.1414L51.4893 18.3379L50.5991 9.31365L48.5146 9.51894L48.3662 8.01509Z" fill="#006BB6"/>
<path d="M59.4737 7.56572L61.4704 7.7346L60.5794 18.2749L58.5828 18.106L59.4737 7.56572Z" fill="#006BB6"/>
<path d="M67.6297 13.6383L70.1243 14.3223L69.7246 15.7794L67.23 15.0956L66.0747 19.3071L64.1423 18.7772L66.9404 8.57628L72.0528 9.97806L71.6528 11.4351L68.4732 10.5635L67.6297 13.6383Z" fill="#006BB6"/>
<path d="M76.711 11.9143L78.5139 12.7887L73.8996 22.3076L72.0967 21.4332L76.711 11.9143Z" fill="#006BB6"/>
<path d="M82.2793 20.3051L84.4873 21.9451L83.5862 23.1585L81.3782 21.5187L79.5311 24.0059L82.3093 26.0691L81.4082 27.2822L77.0217 24.0245L83.329 15.5314L87.7157 18.7895L86.8146 20.0028L84.0364 17.9393L82.2793 20.3051Z" fill="#006BB6"/>
<path d="M91.8307 24.9968L86.0667 29.8837L86.797 30.7449C87.2095 31.2313 87.6643 31.3472 88.2407 30.8585L92.4369 27.3008C93.0133 26.8121 92.9735 26.3447 92.5611 25.858L91.8307 24.9968ZM91.6876 22.4911L93.7375 24.9085C95.0333 26.437 94.9662 27.7835 93.6753 28.8782L89.5944 32.3379C88.3032 33.4326 86.9638 33.2784 85.6678 31.7502L83.6179 29.3325L91.6876 22.4911Z" fill="#006BB6"/>
<path d="M25.3249 91.4045L24.2051 92.3699C22.8563 93.5327 21.3848 93.3846 20.0332 91.8172C18.6814 90.2497 18.7512 88.7726 20.0998 87.6097L24.4828 83.8309C25.8316 82.668 27.3029 82.8164 28.6547 84.3836C30.0065 85.9511 29.9367 87.4282 28.5881 88.591L27.7693 89.297L26.4675 87.7876L27.3707 87.0091C27.9727 86.49 27.9262 85.9734 27.4882 85.4656C27.0502 84.9576 26.546 84.8354 25.944 85.3545L21.3924 89.2788C20.7903 89.7979 20.8488 90.3041 21.2868 90.8121C21.7248 91.3199 22.217 91.4524 22.8192 90.9333L24.0233 89.8951L25.3249 91.4045Z" fill="#006BB6"/>
<path d="M30.3897 97.5973C29.9496 98.2593 30.1337 98.7443 30.692 99.1155C31.2507 99.4866 31.7689 99.4684 32.209 98.8065L35.5353 93.8017C35.9752 93.1397 35.7913 92.6549 35.2328 92.2838C34.6743 91.9123 34.1561 91.9305 33.716 92.5925L30.3897 97.5973ZM31.8991 91.5184C32.8847 90.0357 34.3893 89.8141 36.1127 90.9594C37.8361 92.1052 38.2144 93.5784 37.229 95.061L34.0259 99.8806C33.0403 101.364 31.5355 101.585 29.8121 100.44C28.0886 99.2938 27.7103 97.8208 28.696 96.3379L31.8991 91.5184Z" fill="#006BB6"/>
<path d="M44.3871 103.458L44.424 103.469L47.9029 96.2349L50.7281 97.0194L47.7527 107.742L45.8322 107.209L47.966 99.519L47.9291 99.5087L44.4291 106.819L42.5087 106.286L43.1356 98.2935L43.0987 98.2834L40.9947 105.866L39.2222 105.374L42.1974 94.6511L45.0224 95.4354L44.3871 103.458Z" fill="#006BB6"/>
<path d="M57.0132 98.7563L57.1531 102.522L58.1489 102.485C58.8191 102.459 59.1735 102.192 59.1442 101.397L59.082 99.7293C59.0525 98.9347 58.6793 98.6941 58.009 98.7192L57.0132 98.7563ZM61.1928 99.7618L61.2464 101.208C61.3126 102.987 60.3145 103.995 58.2081 104.073L57.2123 104.11L57.3676 108.289L55.2612 108.367L54.8477 97.246L57.9498 97.1304C60.0564 97.052 61.1266 97.9826 61.1928 99.7618Z" fill="#006BB6"/>
<path d="M68.5532 103.061L70.4904 102.45L67.8474 97.382L67.8108 97.3932L68.5532 103.061ZM74.2015 104.98L72.173 105.62L71.2187 103.804L68.7515 104.582L69.0117 106.617L67.1659 107.2L65.8657 95.9399L68.8078 95.0113L74.2015 104.98Z" fill="#006BB6"/>
<path d="M77.3461 94.2352L77.3143 94.2568L81.8293 100.934L80.258 101.997L74.0242 92.7776L76.2146 91.2964L81.7079 95.6229L81.7397 95.6017L78.0085 90.0833L79.564 89.0315L85.7976 98.2504L84.0039 99.4633L77.3461 94.2352Z" fill="#006BB6"/>
<path d="M89.5502 89.4884L82.125 86.7821L83.5337 85.087L88.451 87.1049L88.4754 87.0754L85.5914 82.6111L86.8775 81.0639L90.8976 87.8673L93.7344 90.2243L92.387 91.8457L89.5502 89.4884Z" fill="#006BB6"/>
<path d="M74.4822 54.401C74.3527 55.0074 73.9435 55.6374 73.3 55.865C72.2742 56.3164 70.8881 56.1915 69.9382 55.6639C69.1423 55.107 69.0398 54.1755 68.937 53.2925C68.8589 51.5537 68.7336 49.7118 69.2209 48.1204C69.6029 47.1352 70.6559 46.8825 71.6077 46.8085C72.609 46.8085 73.5818 46.9606 74.2004 47.7675C74.5852 48.3465 74.5605 49.1043 74.6366 49.7858C74.6096 51.2231 74.7391 52.937 74.4822 54.401ZM80.5416 47.2133C80.0789 45.9996 79.129 44.9155 77.9733 44.1356C74.6366 42.0168 69.5515 41.8647 66.1139 43.7801C64.2389 44.737 63.0071 46.6297 62.6228 48.5766C61.9277 51.7772 62.1067 55.5855 64.572 57.9843C67.4486 60.5051 71.6325 61.062 75.354 60.0268C75.5303 59.9932 76.0911 59.8526 76.4779 59.6469L76.5878 59.5999C77.7429 59.1195 78.8451 58.3372 79.6674 57.2776C81.5671 54.5019 81.6971 50.3399 80.5416 47.2133Z" fill="white"/>
<path d="M44.0605 55.9683C43.2135 55.9167 42.2636 55.9907 41.4433 55.8902L41.4677 47.0346L41.5193 46.9607L44.0605 46.936C44.0874 45.4992 44.1119 43.9569 44.0337 42.647L34.3579 42.6201L32.7645 42.647C32.7398 43.9836 32.7398 45.546 32.7645 46.9093C33.6384 46.936 34.4586 46.9093 35.3056 46.9874V55.5637L35.2812 55.9167L32.7398 55.9683C32.6863 57.3782 32.6863 58.7417 32.7398 60.1299H44.0605V55.9683Z" fill="white"/>
<path d="M63.0071 69.2866L61.8004 69.6646C61.5945 69.5642 61.4157 69.4119 61.2348 69.2596L61.2862 69.1838C62.9292 68.2269 64.4176 67.065 65.83 65.677C66.523 65.954 67.1912 66.3342 67.8082 66.7609C66.3714 67.9009 64.7015 68.6543 63.0071 69.2866ZM60.5422 69.9907C57.8223 70.5738 54.7909 70.5969 52.0709 69.9416C52.0196 69.8165 52.1981 69.79 52.2765 69.716C54.6637 68.1762 58.3852 68.1762 60.7231 69.8386C60.7991 69.9907 60.5931 69.9416 60.5422 69.9907ZM51.0185 69.6646C48.8612 69.1078 46.8587 68.1491 45.0104 66.839V66.7609C45.6272 66.3855 46.2442 65.9812 46.9101 65.7012C48.3741 67.1436 49.8874 68.2269 51.5323 69.2596C51.4025 69.4119 51.197 69.5642 51.0185 69.6646ZM47.7059 65.351C48.7096 64.8702 49.76 64.5149 50.8371 64.24L50.9422 64.2665C51.6843 65.6545 52.6094 66.9648 53.5329 68.2765C53.175 68.4797 52.737 68.6023 52.3794 68.8062C50.6851 67.9744 49.0669 66.8125 47.7059 65.4248V65.351ZM51.8408 63.9873C53.175 63.7352 54.5609 63.5334 55.9979 63.5334L56.0247 67.8007C55.4839 67.9235 54.8939 67.9235 54.3798 68.053C53.3269 66.8125 52.4555 65.4757 51.711 64.0877L51.8408 63.9873ZM56.7935 63.5334C58.258 63.5603 59.722 63.7124 61.0809 64.0389L61.1074 64.1147C60.3899 65.4757 59.4895 66.7901 58.5147 68.0242C58.0769 68.0751 57.6677 67.9009 57.2318 67.8746L56.7935 67.8226C56.7424 66.3342 56.7152 65.0225 56.7935 63.5334ZM61.8518 64.2914L61.9276 64.24C63.034 64.4921 64.0849 64.8457 65.0611 65.3241C64.2388 66.2556 63.1859 67.065 62.2117 67.7447C61.6217 68.0977 61.0295 68.4797 60.4123 68.7792L59.3107 68.3009L59.3865 68.1267C60.312 66.891 61.1343 65.6275 61.8518 64.2914ZM72.5553 62.0205C71.4783 63.5603 70.1171 65.049 68.6308 66.2067C68.5771 66.2849 68.4227 66.2556 68.3739 66.1823C67.7299 65.7798 67.0373 65.4512 66.4201 65.049C67.2426 64.0658 68.0386 63.082 68.6552 61.9936H67.8578C67.2182 62.9304 66.5502 63.9135 65.7028 64.7448C64.572 64.2914 63.5462 63.8868 62.3905 63.5829L62.2631 63.4866C62.4419 62.9772 62.7746 62.4988 62.8776 61.9936H62.1845L61.4922 63.3569C59.9786 63.0288 58.3094 62.8518 56.7691 62.7516C56.6908 62.5258 56.7935 62.1973 56.6908 61.9936H56.0247C55.971 62.2977 56.1007 62.5258 55.9466 62.7786C54.3552 62.8518 52.8154 63.0288 51.3267 63.335L50.6316 61.9936C50.3768 61.9936 50.0929 61.9447 49.9141 62.0205L50.5556 63.5092L50.4795 63.5829C49.3218 63.9135 48.1953 64.3186 47.0912 64.7697L46.9885 64.7183C46.2687 63.9359 45.5758 63.082 45.0104 62.224C44.8828 61.7929 44.3688 62.045 44.0874 61.9936C44.7019 63.1046 45.5245 64.0877 46.3449 65.0983C45.6516 65.5029 44.9611 65.954 44.2393 66.2849C42.6992 65.1229 41.2643 63.6094 40.1848 62.0205C39.8763 61.9717 39.6731 61.9936 39.3623 62.0205C41.2108 64.8971 44.0874 67.4182 47.0912 68.9071C47.0912 68.9071 47.0912 68.8843 47.1182 68.8843C47.1405 68.8843 47.1917 68.931 47.1405 68.958C49.1699 69.9416 51.3267 70.6476 53.6107 70.9519C61.4922 71.9848 69.0149 68.6315 73.378 62.0205C73.1502 61.9936 72.8128 61.9936 72.5553 62.0205Z" fill="white"/>
<path d="M44.9075 35.9865C46.5257 34.8019 48.3228 33.9188 50.2227 33.3131C50.3006 33.235 50.3501 33.1612 50.4527 33.1612V33.2126C50.6582 33.2617 50.8128 33.0338 50.9914 33.1838C51.1457 33.3131 51.3266 33.4138 51.454 33.5391C49.8626 34.5202 48.2961 35.6825 46.8586 37.0929C46.166 36.8447 45.5243 36.4648 44.9075 36.0355V35.9865ZM60.5688 32.8573V32.9087C58.3336 34.5202 54.7149 34.6722 52.3547 33.1838C52.2229 33.0831 51.9683 33.0338 51.9413 32.8573C54.6635 32.229 57.871 32.1779 60.5688 32.8573ZM61.5946 33.1101C63.7516 33.6665 65.7785 34.6231 67.6272 35.9348L67.5759 36.0355L65.8057 37.0189H65.6762C64.3172 35.66 62.7258 34.4752 61.1075 33.5391C61.1589 33.3624 61.4155 33.235 61.5946 33.1101ZM64.8824 37.4235C63.879 37.8507 62.8512 38.255 61.7489 38.4854C60.9536 37.1488 60.0817 35.812 59.1027 34.5202C59.4624 34.3236 59.9006 34.1716 60.2849 33.9704C61.957 34.8019 63.5728 35.9865 64.9317 37.3451L64.8824 37.4235ZM56.6909 39.1916C56.6395 37.8507 56.6662 36.3643 56.6909 34.9759C57.2049 34.9024 57.768 34.8243 58.2823 34.7506C59.2836 36.0088 60.2605 37.3004 60.9287 38.6817C59.541 39.0128 58.1279 39.1916 56.6909 39.1916ZM55.8953 39.1646C55.1778 39.2651 54.5364 39.1421 53.8143 39.0863C53.1238 38.9861 52.2498 38.9121 51.557 38.6817C52.3012 37.3004 53.1751 35.9618 54.2281 34.728L55.8706 34.9517C55.9467 36.2611 55.8953 37.7769 55.8953 39.1646ZM50.7879 38.4854L50.6852 38.5075C49.6327 38.2327 48.6041 37.9018 47.63 37.4749L47.6791 37.3228C49.0917 35.9865 50.5801 34.8754 52.2229 34.0195C52.6095 34.1716 52.994 34.2964 53.3786 34.4752L53.3025 34.6722C52.3256 35.8858 51.557 37.1956 50.7879 38.4854ZM40.1333 40.7026C40.7504 39.8441 41.4432 39.0128 42.2123 38.2059C42.8781 37.5753 43.4949 36.97 44.2149 36.5138C44.8829 36.9431 45.6273 37.3004 46.2685 37.703C45.4729 38.6817 44.6529 39.6699 44.0603 40.727C44.2394 40.8051 44.5746 40.7807 44.8317 40.727C45.4729 39.7948 46.166 38.8607 46.9883 38.0292C48.0903 38.4338 49.17 38.8607 50.3006 39.1646L50.4013 39.2651L49.7601 40.727C50.0437 40.7807 50.2227 40.7537 50.5043 40.727C50.7347 40.3001 50.913 39.8218 51.1702 39.3904C52.6609 39.7211 54.2281 39.8955 55.8192 39.9448C56.0245 40.1236 55.8706 40.5012 55.9467 40.727H56.6395C56.7153 40.4789 56.6148 40.1973 56.7153 39.9738C58.2065 39.8955 59.7707 39.7437 61.2125 39.3904L61.3377 39.4174L62.0307 40.727C62.2632 40.727 62.5694 40.7807 62.7503 40.6759L62.1065 39.2163L62.1602 39.1646C63.3383 38.8607 64.4447 38.4071 65.5732 37.9557C66.3713 38.7868 67.1132 39.7706 67.7839 40.727C68.0652 40.727 68.3468 40.7537 68.5528 40.6759C68.244 40.1236 67.8576 39.5692 67.4487 39.0863C67.1132 38.608 66.7556 38.1811 66.3172 37.7276V37.5979L68.1145 36.5655L68.374 36.4648C69.9382 37.6495 71.3238 39.0863 72.4282 40.6759C72.7364 40.6759 72.9936 40.7807 73.2505 40.6533C69.8089 35.5081 64.1359 32.2 58.003 31.7242L57.9761 31.7733L57.9247 31.7242C57.2319 31.6505 56.3824 31.6212 55.6382 31.6949C55.3566 31.6726 55.0234 31.6949 54.6882 31.7242C48.5283 32.2 42.8558 35.3563 39.3108 40.727C39.5679 40.7026 39.8764 40.8051 40.1333 40.7026Z" fill="white"/>
<path d="M55.9222 56.1651C53.5082 56.8222 50.8888 56.3215 49.1432 54.5025C48.9398 54.2497 48.8103 53.9504 48.6043 53.6977L45.1402 53.7226C45.0865 55.7649 45.0619 58.1115 45.1402 60.1303L48.9889 60.1059L49.0402 58.8947C49.4782 59.0951 49.9142 59.3477 50.3501 59.5735C53.0209 60.6845 56.4588 60.9372 59.1029 59.5735C61.0296 58.5166 62.0574 56.4738 61.7735 54.2742C61.4922 52.1328 59.4382 50.1886 57.3594 49.661L51.1459 47.8685L50.6853 47.6406C50.4796 47.4662 50.3501 47.2406 50.4015 46.9611C50.8888 46.1294 52.0198 46.3821 52.8668 46.4047C54.6637 46.6572 56.5122 47.263 57.565 48.9034C58.6937 48.9034 60.0033 48.9258 61.2348 48.8767C61.2865 46.8091 61.2125 44.9944 61.1835 42.9C60.0282 42.8733 58.6156 42.8733 57.4622 42.9268C57.4106 43.2263 57.5113 43.6532 57.3839 43.9574L56.2037 43.3267C53.3785 42.1422 49.4248 42.0174 46.8588 43.859C45.1893 45.0679 44.6773 47.2406 45.1132 49.1557C45.4464 50.9709 47.1917 52.3074 48.8614 52.9376C51.1459 53.7445 53.5329 54.3276 55.8462 55.1075C56.0761 55.2103 56.3825 55.4389 56.3335 55.716C56.3335 55.9395 56.101 56.0695 55.9222 56.1651Z" fill="white"/>
<path d="M36.7994 78.3571V77.0562C36.7994 76.5396 36.5256 76.3539 36.09 76.3539C35.6545 76.3539 35.3805 76.5396 35.3805 77.0562V78.3571C35.3805 78.8734 35.6545 79.0697 36.09 79.0697C36.5256 79.0697 36.7994 78.8734 36.7994 78.3571ZM38.1684 80.8249C38.1684 82.0433 37.4963 82.7041 36.0775 82.7041C34.7333 82.7041 34.0364 82.0433 34.0364 80.8867V80.701H35.3308V80.9593C35.3308 81.4754 35.6045 81.6717 36.0402 81.6717C36.5256 81.6717 36.7994 81.4754 36.7994 80.7835V79.4722H36.7745C36.5381 79.8853 36.1397 80.1021 35.5298 80.1021C34.5218 80.1021 34.0115 79.5137 34.0115 78.4499V77.1283C34.0115 75.9717 34.7458 75.3109 36.09 75.3109C37.4341 75.3109 38.1684 75.9717 38.1684 77.1283V80.8249Z" fill="white"/>
<path d="M40.3341 80.9593C40.3341 81.4754 40.6079 81.6717 41.0436 81.6717C41.4793 81.6717 41.753 81.4754 41.753 80.9593V77.0562C41.753 76.5396 41.4793 76.3436 41.0436 76.3436C40.6079 76.3436 40.3341 76.5396 40.3341 77.0562V80.9593ZM38.9651 77.1283C38.9651 75.9719 39.6994 75.3109 41.0436 75.3109C42.3877 75.3109 43.122 75.9719 43.122 77.1283V80.8869C43.122 82.0433 42.3877 82.7041 41.0436 82.7041C39.6994 82.7041 38.9651 82.0433 38.9651 80.8869V77.1283Z" fill="white"/>
<path d="M45.2626 80.9593C45.2626 81.4754 45.5363 81.6717 45.972 81.6717C46.4077 81.6717 46.6814 81.4754 46.6814 80.9593V77.0562C46.6814 76.5396 46.4077 76.3436 45.972 76.3436C45.5363 76.3436 45.2626 76.5396 45.2626 77.0562V80.9593ZM43.8936 77.1283C43.8936 75.9719 44.6279 75.3109 45.972 75.3109C47.3162 75.3109 48.0505 75.9719 48.0505 77.1283V80.8869C48.0505 82.0433 47.3162 82.7041 45.972 82.7041C44.6279 82.7041 43.8936 82.0433 43.8936 80.8869V77.1283Z" fill="white"/>
<path d="M49.7808 76.3028C50.8385 76.3028 51.0749 75.8793 51.2867 75.3943H52.2076V82.6221H50.8385V77.108H49.7808V76.3028Z" fill="white"/>
<path d="M55.1823 82.6221H53.863V81.5277H55.1823V82.6221ZM55.1823 78.6879H53.863V77.5933H55.1823V78.6879Z" fill="white"/>
<path d="M58.1816 76.344C57.7459 76.344 57.4721 76.5403 57.4721 77.0567V77.831H56.1777V77.1288C56.1777 75.9724 56.8747 75.3116 58.2189 75.3116C59.5631 75.3116 60.26 75.9724 60.26 77.1288C60.26 78.0891 59.8368 78.8637 58.5673 79.989C57.7583 80.7118 57.5344 81.0528 57.5344 81.4348C57.5344 81.4862 57.5344 81.5378 57.5468 81.5896H60.1354V82.6221H56.1777V81.7341C56.1777 80.9286 56.5263 80.3194 57.5468 79.4314C58.5921 78.5126 58.891 77.9446 58.891 77.1702C58.891 76.5198 58.617 76.344 58.1816 76.344Z" fill="white"/>
<path d="M62.3634 80.9593C62.3634 81.4754 62.6372 81.6717 63.0729 81.6717C63.5086 81.6717 63.7823 81.4754 63.7823 80.9593V77.0562C63.7823 76.5396 63.5086 76.3436 63.0729 76.3436C62.6372 76.3436 62.3634 76.5396 62.3634 77.0562V80.9593ZM60.9944 77.1283C60.9944 75.9719 61.7287 75.3109 63.0729 75.3109C64.417 75.3109 65.1513 75.9719 65.1513 77.1283V80.8869C65.1513 82.0433 64.417 82.7041 63.0729 82.7041C61.7287 82.7041 60.9944 82.0433 60.9944 80.8869V77.1283Z" fill="white"/>
<path d="M66.8813 76.3028C67.9394 76.3028 68.1758 75.8793 68.3873 75.3943H69.3082V82.6221H67.9394V77.108H66.8813V76.3028Z" fill="white"/>
<path d="M72.1958 80.2881V80.9593C72.1958 81.4754 72.4695 81.6613 72.9052 81.6613C73.3407 81.6613 73.6146 81.4754 73.6146 80.9593V79.369C73.6146 78.8529 73.3407 78.6566 72.9052 78.6566C72.4695 78.6566 72.1958 78.8529 72.1958 79.369V79.5858H70.9014L71.1502 75.3938H74.7595V76.4263H72.37L72.258 78.1506H72.2829C72.5317 77.8099 72.9176 77.6239 73.4653 77.6239C74.4733 77.6239 74.9837 78.2126 74.9837 79.2759V80.8869C74.9837 82.0433 74.2867 82.7041 72.9425 82.7041C71.5983 82.7041 70.9014 82.0433 70.9014 80.8869V80.2881H72.1958Z" fill="white"/>
</svg>
