<svg width="135" height="31" viewBox="0 0 135 31" fill="none" xmlns="http://www.w3.org/2000/svg">
<path fill-rule="evenodd" clip-rule="evenodd" d="M130.746 22.7161C128.63 22.7161 126.915 24.4469 126.915 26.5821C126.915 28.7169 128.63 30.4481 130.746 30.4481C132.862 30.4481 134.578 28.717 134.578 26.5821C134.578 24.4467 132.862 22.7161 130.746 22.7161ZM118.141 19.7272C118.141 16.8039 115.665 14.4347 112.611 14.4347C109.556 14.4347 107.08 16.804 107.08 19.7272C107.08 22.6504 109.556 25.0203 112.611 25.0203C115.665 25.0203 118.141 22.6504 118.141 19.7272ZM118.162 9.44059H124.266V30.013H118.162V28.6982C116.437 29.8849 114.356 30.5825 112.111 30.5825C106.17 30.5825 101.353 25.7225 101.353 19.727C101.353 13.7316 106.17 8.87193 112.111 8.87193C114.356 8.87193 116.437 9.56951 118.162 10.7566V9.44059ZM69.313 12.1203V9.44088H63.0635V30.0129H69.327V20.4081C69.327 17.1676 72.8077 15.4259 75.2229 15.4259C75.2477 15.4259 75.2707 15.4283 75.2954 15.4286V9.44251C72.8166 9.44251 70.5367 10.5131 69.313 12.1203ZM53.7455 19.7272C53.7455 16.804 51.2691 14.4348 48.2144 14.4348C45.1599 14.4348 42.6834 16.8041 42.6834 19.7272C42.6834 22.6505 45.1598 25.0204 48.2144 25.0204C51.2692 25.0204 53.7455 22.6505 53.7455 19.7272ZM53.7656 9.44067H59.8699V30.0131H53.7656V28.6983C52.0412 29.885 49.9597 30.5826 47.7149 30.5826C41.7734 30.5826 36.9568 25.7225 36.9568 19.7271C36.9568 13.7317 41.7734 8.872 47.7149 8.872C49.9598 8.872 52.0413 9.56958 53.7656 10.7567V9.44067ZM90.5064 8.88734C88.0681 8.88734 85.7603 9.65123 84.2174 11.7587V9.44189H78.1397V30.0132H84.2922V19.2023C84.2922 16.0739 86.3711 14.542 88.8744 14.542C91.5572 14.542 93.0995 16.1592 93.0995 19.1599V30.0132H99.1962V16.9309C99.1962 12.1434 95.424 8.88734 90.5064 8.88734ZM28.0654 30.0132H34.4543V0.273041H28.0654V30.0132ZM0 30.0215H6.76522V0.26765H0V30.0215ZM23.6625 0.26765C23.6625 6.70906 21.1748 12.7012 16.742 17.1552L26.0934 30.0226H17.7375L7.57458 16.0386L10.1975 14.0564C14.5472 10.7686 17.0421 5.74294 17.0421 0.267578L23.6625 0.26765Z" fill="#999999"/>
</svg>
