<svg width="32" height="33" viewBox="0 0 32 33" fill="none" xmlns="http://www.w3.org/2000/svg">
<path d="M16 0.169922C9.57092 0.169922 4.36365 5.37719 4.36365 11.8063V20.5336C4.36365 26.9627 9.57092 32.1699 16 32.1699C22.4291 32.1699 27.6364 26.9627 27.6364 20.5336V11.8063C27.6364 5.37719 22.4291 0.169922 16 0.169922ZM16 2.10932C21.3886 2.10932 25.697 6.41768 25.697 11.8063V20.5336C25.697 25.9222 21.3886 30.2305 16 30.2305C10.6114 30.2305 6.30304 25.9222 6.30304 20.5336V11.8063C6.30304 6.41768 10.6114 2.10932 16 2.10932Z" fill="white"/>
<path d="M16.0815 6.47266C15.4391 6.4747 14.8237 6.73077 14.3695 7.18496C13.9153 7.63915 13.6593 8.25458 13.6572 8.8969C13.6572 10.2302 14.7491 11.3211 16.0815 11.3211C17.4148 11.3211 18.5057 10.2302 18.5057 8.8969C18.5057 7.56357 17.4148 6.47266 16.0815 6.47266Z" fill="white"/>
</svg>
