<svg width="16" height="16" viewBox="0 0 16 16" fill="none" xmlns="http://www.w3.org/2000/svg">
<path d="M7.96997 0.5C3.86997 0.5 0.469971 3.9 0.469971 8C0.469971 9.7 0.969971 11.2 1.96997 12.5C3.36997 14.4 5.56997 15.5 7.96997 15.5C10.37 15.5 12.57 14.4 13.97 12.5C14.97 11.2 15.47 9.6 15.47 8C15.47 3.9 12.07 0.5 7.96997 0.5ZM7.96997 14C6.56997 14 5.16997 13.5 4.16997 12.6C5.26997 11.7 6.56997 11.2 7.96997 11.2C9.36997 11.2 10.77 11.7 11.77 12.6C10.77 13.5 9.36997 14 7.96997 14ZM12.77 11.5C11.47 10.4 9.76997 9.7 7.96997 9.7C6.16997 9.7 4.46997 10.4 3.16997 11.5C2.36997 10.5 1.96997 9.3 1.96997 8C1.96997 4.7 4.66997 2 7.96997 2C11.27 2 13.97 4.7 13.97 8C13.97 9.3 13.57 10.5 12.77 11.5ZM7.96997 3.5C6.56997 3.5 5.46997 4.6 5.46997 6C5.46997 7.4 6.56997 8.5 7.96997 8.5C9.36997 8.5 10.47 7.4 10.47 6C10.47 4.6 9.36997 3.5 7.96997 3.5ZM7.96997 7C7.46997 7 6.96997 6.5 6.96997 6C6.96997 5.5 7.46997 5 7.96997 5C8.46997 5 8.96997 5.5 8.96997 6C8.96997 6.5 8.46997 7 7.96997 7Z" fill="black"/>
</svg>
