<svg width="81" height="80" viewBox="0 0 81 80" fill="none" xmlns="http://www.w3.org/2000/svg">
<g clip-path="url(#clip0_50_119)">
<g clip-path="url(#clip1_50_119)">
<path d="M45.5922 79.1596C64.6839 79.1596 80.1608 63.6827 80.1608 44.591C80.1608 25.4993 64.6839 10.0225 45.5922 10.0225C26.5006 10.0225 11.0237 25.4993 11.0237 44.591C11.0237 63.6827 26.5006 79.1596 45.5922 79.1596Z" fill="#FFD800"/>
<path d="M59.784 1.10898L36.2555 10.1547L36.534 6.60664C36.6551 5.05664 34.984 4.00312 33.6277 4.77813L12.2668 17.1539C4.67422 21.5496 0 29.6508 0 38.418C0 51.9926 11.0074 63 24.582 63C33.3492 63 41.4625 58.3258 45.8582 50.7332L58.2219 29.3723C59.009 28.0281 57.9555 26.3449 56.3934 26.466L52.8453 26.7445L61.891 3.21602C61.9637 3.03437 62 2.82852 62 2.63477C62 1.72656 61.2734 1 60.3652 1C60.1594 1 59.9656 1.03633 59.784 1.10898ZM23.25 24.25C27.3609 24.25 31.3033 25.883 34.2102 28.7898C37.117 31.6967 38.75 35.6391 38.75 39.75C38.75 43.8609 37.117 47.8033 34.2102 50.7102C31.3033 53.617 27.3609 55.25 23.25 55.25C19.1391 55.25 15.1967 53.617 12.2898 50.7102C9.38303 47.8033 7.75 43.8609 7.75 39.75C7.75 35.6391 9.38303 31.6967 12.2898 28.7898C15.1967 25.883 19.1391 24.25 23.25 24.25ZM23.25 35.875C23.25 34.8473 22.8417 33.8617 22.115 33.135C21.3883 32.4083 20.4027 32 19.375 32C18.3473 32 17.3617 32.4083 16.635 33.135C15.9083 33.8617 15.5 34.8473 15.5 35.875C15.5 36.9027 15.9083 37.8883 16.635 38.615C17.3617 39.3417 18.3473 39.75 19.375 39.75C20.4027 39.75 21.3883 39.3417 22.115 38.615C22.8417 37.8883 23.25 36.9027 23.25 35.875ZM25.1875 47.5C25.7014 47.5 26.1942 47.2959 26.5575 46.9325C26.9209 46.5692 27.125 46.0764 27.125 45.5625C27.125 45.0486 26.9209 44.5558 26.5575 44.1925C26.1942 43.8291 25.7014 43.625 25.1875 43.625C24.6736 43.625 24.1808 43.8291 23.8175 44.1925C23.4541 44.5558 23.25 45.0486 23.25 45.5625C23.25 46.0764 23.4541 46.5692 23.8175 46.9325C24.1808 47.2959 24.6736 47.5 25.1875 47.5Z" fill="#010101"/>
</g>
</g>
<defs>
<clipPath id="clip0_50_119">
<rect width="80" height="78.52" fill="white" transform="translate(0.160034 0.639648)"/>
</clipPath>
<clipPath id="clip1_50_119">
<rect width="80.0015" height="78.52" fill="white" transform="translate(0.159302 0.639648)"/>
</clipPath>
</defs>
</svg>
