<svg width="81" height="79" viewBox="0 0 81 79" fill="none" xmlns="http://www.w3.org/2000/svg">
<g clip-path="url(#clip0_50_101)">
<g clip-path="url(#clip1_50_101)">
<path d="M47.9761 78.3454C65.7508 78.3454 80.16 63.9361 80.16 46.1614C80.16 28.3868 65.7508 13.9775 47.9761 13.9775C30.2015 13.9775 15.7922 28.3868 15.7922 46.1614C15.7922 63.9361 30.2015 78.3454 47.9761 78.3454Z" fill="#FFD800"/>
<g clip-path="url(#clip2_50_101)">
<path d="M47.5 55.375C48.5312 55.375 49.375 54.5312 49.375 53.5V8.5C49.375 7.46875 48.5312 6.625 47.5 6.625H28.75V16C28.75 18.0742 27.0742 19.75 25 19.75H15.625V53.5C15.625 54.5312 16.4688 55.375 17.5 55.375H47.5ZM47.5 1C51.6367 1 55 4.36328 55 8.5V53.5C55 57.6367 51.6367 61 47.5 61H17.5C13.3633 61 10 57.6367 10 53.5V19.1055C10 17.1133 10.7852 15.2031 12.1914 13.7969L22.8086 3.19141C24.2148 1.78516 26.1133 1 28.1055 1H47.5ZM36.1328 34.8672C35.0312 33.7656 35.0312 31.9844 36.1328 30.8945C37.2344 29.8047 39.0156 29.793 40.1055 30.8945L45.7422 36.5078C46.8438 37.6094 46.8438 39.3906 45.7422 40.4805L40.1172 46.1055C39.0156 47.207 37.2344 47.207 36.1445 46.1055C35.0547 45.0039 35.043 43.2227 36.1445 42.1328L39.7773 38.5L36.1445 34.8672H36.1328ZM24.8828 30.8828C25.9844 29.7812 27.7656 29.7812 28.8555 30.8828C29.9453 31.9844 29.957 33.7656 28.8555 34.8555L25.2227 38.4883L28.8555 42.1211C29.957 43.2227 29.957 45.0039 28.8555 46.0938C27.7539 47.1836 25.9727 47.1953 24.8828 46.0938L19.2578 40.4688C18.1562 39.3672 18.1562 37.5859 19.2578 36.4961L24.8828 30.8711V30.8828Z" fill="black"/>
</g>
</g>
</g>
<defs>
<clipPath id="clip0_50_101">
<rect width="80" height="77.69" fill="white" transform="translate(0.160034 0.650391)"/>
</clipPath>
<clipPath id="clip1_50_101">
<rect width="80" height="77.7011" fill="white" transform="translate(0.160034 0.644531)"/>
</clipPath>
<clipPath id="clip2_50_101">
<rect width="45" height="60" fill="white" transform="matrix(-1 0 0 1 55 1)"/>
</clipPath>
</defs>
</svg>
