<svg width="92" height="78" viewBox="0 0 92 78" fill="none" xmlns="http://www.w3.org/2000/svg">
<g clip-path="url(#clip0_338_4)">
<g clip-path="url(#clip1_338_4)">
<path d="M47.6686 77.446C27.9693 77.446 11.9998 61.4765 11.9998 41.7772C11.9998 22.0779 27.9693 6.1084 47.6686 6.1084C67.3679 6.1084 83.3374 22.0779 83.3374 41.7772C83.3374 61.4765 67.3679 77.446 47.6686 77.446Z" fill="#FFD800"/>
</g>
</g>
<path d="M50.625 4.3805C50.625 3.0201 49.8023 1.78625 48.5367 1.25897C47.2711 0.731682 45.8262 1.02696 44.8559 1.98662L40.2574 6.59511C35.1949 11.6571 28.3289 14.5044 21.1676 14.5044H20.25H16.875H6.75C3.02695 14.5044 0 17.531 0 21.2537V31.3776C0 35.1002 3.02695 38.1268 6.75 38.1268V51.6254C6.75 53.492 8.2582 55 10.125 55H16.875C18.7418 55 20.25 53.492 20.25 51.6254V38.1268H21.1676C28.3289 38.1268 35.1949 40.9742 40.2574 46.0361L44.8559 50.6341C45.8262 51.6043 47.2711 51.889 48.5367 51.3617C49.8023 50.8344 50.625 49.6111 50.625 48.2402V32.6747C52.5867 31.7467 54 29.2473 54 26.3051C54 23.3628 52.5867 20.8635 50.625 19.9355V4.3805ZM43.875 12.4691V26.3156V40.1622C37.6734 34.5202 29.584 31.3776 21.1676 31.3776H20.25V21.2537H21.1676C29.584 21.2537 37.6734 18.111 43.875 12.4691Z" fill="black"/>
<defs>
<clipPath id="clip0_338_4">
<rect width="80" height="77.44" fill="white" transform="matrix(-1 0 0 1 92 0)"/>
</clipPath>
<clipPath id="clip1_338_4">
<rect width="80" height="77.4522" fill="white" transform="matrix(-1 0 0 1 92 -0.00585938)"/>
</clipPath>
</defs>
</svg>
