<svg width="142" height="34" viewBox="0 0 142 34" fill="none" xmlns="http://www.w3.org/2000/svg">
<g clip-path="url(#clip0_50_311)">
<g clip-path="url(#clip1_50_311)">
<path d="M19.4438 30.4856V27.1613H22.96C23.867 27.1365 24.7468 27.4727 25.4062 28.0959C26.0657 28.7192 26.4509 29.5786 26.4773 30.4856C26.4509 31.3925 26.0657 32.252 25.4062 32.8752C24.7468 33.4985 23.867 33.8346 22.96 33.8099C22.0531 33.8346 21.1734 33.4984 20.5142 32.8752C19.8549 32.2519 19.4699 31.3924 19.4438 30.4856ZM10.0667 30.4856V21.6174C10.0931 20.7107 10.4782 19.8515 11.1375 19.2285C11.7967 18.6054 12.6762 18.2694 13.583 18.2941C14.5061 18.2901 15.3959 18.6388 16.0705 19.2689C16.3934 19.5692 16.6514 19.9326 16.8283 20.3365C17.0053 20.7405 17.0975 21.1764 17.0992 21.6174V30.4856C17.0734 31.3925 16.6885 32.2521 16.0291 32.8755C15.3698 33.4988 14.49 33.8349 13.583 33.8099C12.6762 33.8343 11.7968 33.4981 11.1378 32.8748C10.4787 32.2515 10.0939 31.3923 10.0677 30.4856H10.0667ZM98.1552 19.2589C98.2282 16.5665 99.3669 14.0132 101.321 12.1598C103.275 10.3063 105.886 9.3044 108.578 9.37401C110.403 9.35585 112.201 9.81267 113.796 10.6996C115.392 11.5866 116.729 12.8731 117.676 14.4329L112.912 16.9324C112.459 16.1923 111.821 15.5823 111.062 15.1618C110.302 14.7413 109.447 14.5247 108.579 14.5329C107.293 14.4999 106.047 14.9784 105.114 15.8634C104.181 16.7484 103.638 17.9675 103.603 19.2529C103.638 20.5385 104.181 21.7577 105.114 22.6428C106.047 23.5278 107.293 24.0063 108.579 23.9729C109.447 23.9811 110.302 23.7644 111.062 23.3439C111.821 22.9234 112.458 22.3135 112.912 21.5734L117.676 24.0729C116.729 25.6333 115.392 26.9203 113.797 27.8076C112.202 28.695 110.403 29.152 108.578 29.1339C105.887 29.2029 103.278 28.2017 101.325 26.3499C99.3707 24.4981 98.2313 21.9468 98.1562 19.2559L98.1552 19.2589ZM73.7033 19.2389C73.6608 17.9757 73.8696 16.7167 74.3175 15.5348C74.7655 14.353 75.4436 13.2718 76.3127 12.3541C77.1818 11.4364 78.2244 10.7004 79.3802 10.1888C80.5359 9.67726 81.7817 9.4003 83.0454 9.37401C85.5748 9.37401 87.9813 10.4568 88.9601 12.0045V9.75993H94.9169V28.7559H88.9601V26.5124C87.9823 28.0591 85.5758 29.1428 83.0454 29.1428C77.8245 29.1438 73.7053 24.7318 73.7053 19.2389H73.7033ZM79.3342 19.2589C79.369 20.5443 79.9126 21.7633 80.8456 22.6481C81.7786 23.533 83.0247 24.0113 84.3101 23.9779C85.2189 23.9946 86.1179 23.7884 86.9286 23.3772C87.7392 22.9661 88.4367 22.3625 88.9601 21.6194V16.9754C88.4477 16.2157 87.7545 15.5953 86.9428 15.17C86.1311 14.7446 85.2264 14.5278 84.3101 14.5389C83.0253 14.5061 81.7799 14.9843 80.8472 15.8687C79.9145 16.753 79.3707 17.9712 79.3352 19.2559L79.3342 19.2589ZM44.6804 26.7444L46.3941 22.9532C48.3969 24.291 50.7573 24.9922 53.1657 24.9647C54.9603 24.9647 56.102 24.3079 56.102 23.3011C56.061 20.5157 45.2923 22.6822 45.2103 15.6777C45.1693 12.1194 48.5096 9.37301 53.2476 9.37301C55.9555 9.27064 58.6262 10.0291 60.876 11.5396L59.2764 15.4117C57.392 14.232 55.227 13.5762 53.0047 13.5121C51.536 13.5121 50.5572 14.169 50.5572 15.0218C50.5982 17.7672 61.4499 16.2586 61.5729 22.9522C61.5729 26.5884 58.3086 29.1428 53.6576 29.1428C50.4938 29.2492 47.3696 28.4145 44.6804 26.7444ZM133.702 28.7559L126.643 20.4837V28.7559H120.686V1.14374H126.643V17.3823L133.374 9.75893H140.66L132.338 18.929L141.313 28.7569L133.702 28.7559ZM64.6612 28.7559V1.14374H70.617V28.7559H64.6612ZM22.965 24.9427C22.0421 24.9456 21.1527 24.5971 20.4775 23.9679C20.1546 23.667 19.8967 23.3031 19.7198 22.8986C19.5429 22.4942 19.4506 22.0579 19.4488 21.6164C19.4752 20.7097 19.8603 19.8505 20.5195 19.2275C21.1787 18.6044 22.0583 18.2684 22.965 18.2931H32.343C33.25 18.2681 34.1297 18.604 34.7892 19.2271C35.4487 19.8502 35.8339 20.7096 35.8603 21.6164C35.8341 22.5236 35.4491 23.3833 34.7896 24.0067C34.1301 24.6302 33.2502 24.9665 32.343 24.9417L22.965 24.9427ZM1.72349 23.9679C1.40057 23.667 1.1427 23.3031 0.965763 22.8986C0.78883 22.4942 0.696581 22.0579 0.694702 21.6164C0.721114 20.7097 1.1062 19.8505 1.76545 19.2275C2.42469 18.6044 3.30421 18.2684 4.21096 18.2931H7.72822V21.6164C7.70207 22.5236 7.31699 23.3833 6.65753 24.0067C5.99807 24.6302 5.11815 24.9665 4.21096 24.9417C3.28658 24.9466 2.39516 24.5987 1.71849 23.9689L1.72349 23.9679ZM19.4488 12.7503V3.88317C19.4752 2.97638 19.8602 2.1171 20.5194 1.49387C21.1786 0.870649 22.0582 0.534385 22.965 0.558866C23.8719 0.534648 24.7514 0.870969 25.4107 1.49411C26.07 2.11725 26.4553 2.97637 26.4823 3.88317V12.7513C26.4559 13.6584 26.0707 14.5181 25.4114 15.1416C24.752 15.7652 23.8722 16.1018 22.965 16.0776C22.5153 16.0904 22.0675 16.0145 21.6472 15.8542C21.2268 15.6939 20.8422 15.4523 20.5152 15.1433C20.1882 14.8344 19.9253 14.464 19.7414 14.0534C19.5576 13.6428 19.4564 13.2 19.4438 12.7503H19.4488ZM28.8268 16.0766V12.7513C28.8527 11.8442 29.2375 10.9846 29.8968 10.3611C30.5561 9.73757 31.436 9.40125 32.343 9.426C33.2502 9.40125 34.1301 9.73753 34.7896 10.361C35.4491 10.9845 35.8341 11.8442 35.8603 12.7513C35.8339 13.6584 35.4487 14.5179 34.7893 15.1413C34.1299 15.7647 33.2502 16.1011 32.343 16.0766H28.8268ZM4.21096 16.0766C3.30395 16.1011 2.42428 15.7647 1.76504 15.1412C1.1058 14.5178 0.720856 13.6583 0.694702 12.7513C0.720594 11.8442 1.10546 10.9846 1.76476 10.3611C2.42405 9.73757 3.30387 9.40125 4.21096 9.426H13.589C14.4961 9.40125 15.3759 9.73757 16.0352 10.3611C16.6945 10.9846 17.0794 11.8442 17.1052 12.7513C17.0791 13.6583 16.6941 14.5178 16.0349 15.1412C15.3757 15.7647 14.496 16.1011 13.589 16.0766H4.21096ZM13.589 7.20947C12.6658 7.2125 11.776 6.86397 11.1005 6.23467C10.7777 5.93369 10.5199 5.56976 10.3432 5.16533C10.1664 4.7609 10.0744 4.32454 10.0727 3.88317C10.0994 2.97691 10.4843 2.11819 11.143 1.49524C11.8018 0.872287 12.6807 0.53592 13.587 0.559866C14.4938 0.535385 15.3734 0.871648 16.0326 1.49487C16.6918 2.1181 17.0768 2.97738 17.1032 3.88417V7.21047L13.589 7.20947Z" fill="#999999"/>
</g>
</g>
<defs>
<clipPath id="clip0_50_311">
<rect width="140.66" height="33.25" fill="white" transform="translate(0.669922 0.560059)"/>
</clipPath>
<clipPath id="clip1_50_311">
<rect width="140.62" height="33.25" fill="white" transform="translate(0.689697 0.560059)"/>
</clipPath>
</defs>
</svg>
