<svg width="97" height="78" viewBox="0 0 97 78" fill="none" xmlns="http://www.w3.org/2000/svg">
<g clip-path="url(#clip0_354_4)">
<g clip-path="url(#clip1_354_4)">
<path d="M52.6686 77.446C32.9693 77.446 16.9998 61.4765 16.9998 41.7772C16.9998 22.0779 32.9693 6.1084 52.6686 6.1084C72.3679 6.1084 88.3374 22.0779 88.3374 41.7772C88.3374 61.4765 72.3679 77.446 52.6686 77.446Z" fill="#FFD800"/>
</g>
</g>
<path d="M28.225 53.5032L27.9125 53.2139L6.0125 32.7499C2.175 29.1652 0 24.1341 0 18.864V18.4489C0 9.59414 6.25 1.99715 14.9 0.336875C19.825 -0.619037 24.8625 0.525542 28.875 3.36813C30 4.1731 31.05 5.10386 32 6.17298C32.525 5.56924 33.0875 5.01582 33.6875 4.50013C34.15 4.09764 34.625 3.7203 35.125 3.36813C39.1375 0.525542 44.175 -0.619037 49.1 0.324298C57.75 1.98457 64 9.59414 64 18.4489V18.864C64 24.1341 61.825 29.1652 57.9875 32.7499L36.0875 53.2139L35.775 53.5032C34.75 54.4592 33.4 55 32 55C30.6 55 29.25 54.4717 28.225 53.5032ZM29.8875 12.8518C29.8375 12.8141 29.8 12.7637 29.7625 12.7134L27.5375 10.1979L27.525 10.1853C24.6375 6.92764 20.275 5.44346 16.025 6.26102C10.2 7.38044 6 12.487 6 18.4489V18.864C6 22.4486 7.4875 25.8824 10.1 28.3225L32 48.7866L53.9 28.3225C56.5125 25.8824 58 22.4486 58 18.864V18.4489C58 12.4996 53.8 7.38044 47.9875 6.26102C43.7375 5.44346 39.3625 6.94022 36.4875 10.1853C36.4875 10.1853 36.4875 10.1853 36.475 10.1979C36.4625 10.2104 36.475 10.1979 36.4625 10.2104L34.2375 12.726C34.2 12.7763 34.15 12.8141 34.1125 12.8644C33.55 13.4304 32.7875 13.7448 32 13.7448C31.2125 13.7448 30.45 13.4304 29.8875 12.8644V12.8518Z" fill="black"/>
<defs>
<clipPath id="clip0_354_4">
<rect width="80" height="77.44" fill="white" transform="matrix(-1 0 0 1 97 0)"/>
</clipPath>
<clipPath id="clip1_354_4">
<rect width="80" height="77.4522" fill="white" transform="matrix(-1 0 0 1 97 -0.00585938)"/>
</clipPath>
</defs>
</svg>
