<svg width="93" height="78" viewBox="0 0 93 78" fill="none" xmlns="http://www.w3.org/2000/svg">
<g clip-path="url(#clip0_354_3)">
<g clip-path="url(#clip1_354_3)">
<path d="M48.6686 77.446C28.9693 77.446 12.9998 61.4765 12.9998 41.7772C12.9998 22.0779 28.9693 6.1084 48.6686 6.1084C68.3679 6.1084 84.3374 22.0779 84.3374 41.7772C84.3374 61.4765 68.3679 77.446 48.6686 77.446Z" fill="#FFD800"/>
</g>
</g>
<path d="M26.7489 4.83782L22.4522 6.43532C22.1103 6.55995 21.8824 6.88851 21.8824 7.25106C21.8824 7.61362 22.1103 7.94218 22.4522 8.06681L26.7489 9.66431L28.3559 13.9356C28.4812 14.2755 28.8118 14.5021 29.1765 14.5021C29.5412 14.5021 29.8717 14.2755 29.9971 13.9356L31.604 9.66431L35.9007 8.06681C36.2426 7.94218 36.4706 7.61362 36.4706 7.25106C36.4706 6.88851 36.2426 6.55995 35.9007 6.43532L31.604 4.83782L29.9971 0.566489C29.8717 0.226596 29.5412 0 29.1765 0C28.8118 0 28.4812 0.226596 28.3559 0.566489L26.7489 4.83782ZM5.25404 44.798C3.12279 46.9166 3.12279 50.3609 5.25404 52.4909L9.19743 56.411C11.3287 58.5297 14.7934 58.5297 16.936 56.411L60.393 13.1992C62.5243 11.0805 62.5243 7.63627 60.393 5.50628L56.4496 1.5975C54.3184 -0.52117 50.8537 -0.52117 48.711 1.5975L5.25404 44.798ZM55.2301 9.3584L43.2632 21.2547L40.6077 18.6148L52.5746 6.71856L55.2301 9.3584ZM0.854779 13.2785C0.341912 13.4711 0 13.9583 0 14.5021C0 15.046 0.341912 15.5331 0.854779 15.7257L7.29412 18.1277L9.71029 24.529C9.90404 25.0388 10.3941 25.3787 10.9412 25.3787C11.4882 25.3787 11.9783 25.0388 12.1721 24.529L14.5882 18.1277L21.0276 15.7257C21.5404 15.5331 21.8824 15.046 21.8824 14.5021C21.8824 13.9583 21.5404 13.4711 21.0276 13.2785L14.5882 10.8766L12.1721 4.47527C11.9783 3.96542 11.4882 3.62553 10.9412 3.62553C10.3941 3.62553 9.90404 3.96542 9.71029 4.47527L7.29412 10.8766L0.854779 13.2785ZM40.9724 42.2828C40.4596 42.4754 40.1176 42.9625 40.1176 43.5064C40.1176 44.0502 40.4596 44.5374 40.9724 44.73L47.4118 47.1319L49.8279 53.5332C50.0217 54.0431 50.5118 54.383 51.0588 54.383C51.6059 54.383 52.096 54.0431 52.2897 53.5332L54.7059 47.1319L61.1452 44.73C61.6581 44.5374 62 44.0502 62 43.5064C62 42.9625 61.6581 42.4754 61.1452 42.2828L54.7059 39.8808L52.2897 33.4795C52.096 32.9697 51.6059 32.6298 51.0588 32.6298C50.5118 32.6298 50.0217 32.9697 49.8279 33.4795L47.4118 39.8808L40.9724 42.2828Z" fill="black"/>
<defs>
<clipPath id="clip0_354_3">
<rect width="80" height="77.44" fill="white" transform="matrix(-1 0 0 1 93 0)"/>
</clipPath>
<clipPath id="clip1_354_3">
<rect width="80" height="77.4522" fill="white" transform="matrix(-1 0 0 1 93 -0.00585938)"/>
</clipPath>
</defs>
</svg>
